<svg width="867" height="400" viewBox="0 0 867 400" fill="none" xmlns="http://www.w3.org/2000/svg">
<path d="M465.301 48.3241C465.301 48.3241 453.244 26.4336 464.299 16.766C475.353 7.09852 494.825 12.8695 498.406 16.766C501.987 20.6626 506.76 31.7504 496.866 47.5215L465.301 48.3241Z" fill="#2C3A64"/>
<path d="M441.277 398.04C441.277 398.04 441.277 391.969 442.142 389.952C443.007 387.935 446.188 379.714 446.188 379.714H458.571C458.571 379.714 460.876 387.211 461.018 389.661C461.161 392.111 461.018 398.04 461.018 398.04H441.277Z" fill="#233862"/>
<path d="M519.913 398.04C519.913 398.04 519.913 391.969 519.053 389.952C518.194 387.935 515.019 379.714 515.019 379.714H502.619C502.619 379.714 500.315 387.211 500.172 389.661C500.03 392.111 500.172 398.04 500.172 398.04H519.913Z" fill="#233862"/>
<path d="M470.295 57.3327C470.295 57.3327 469.863 70.8493 468.133 76.9053L454.457 86.4567L505.943 94.1707L493.654 77.1852C493.654 77.1852 489.962 59.0645 491.887 52.3696C493.812 45.6747 470.295 57.3327 470.295 57.3327Z" fill="#B56F40"/>
<path d="M470.221 59.2021C470.221 59.2021 474.292 69.0122 481.961 68.7957C489.629 68.5793 491.375 59.8991 491.375 59.8991L470.221 59.2021Z" fill="#99592E"/>
<path d="M491.681 27.9229H470.484C467.631 27.9229 465.3 30.6631 465.3 34.0106V48.3244C465.3 57.4956 475.526 64.9034 481.085 65.0037C487.456 65.1146 496.865 57.1313 496.865 47.5166V34.0106C496.865 30.6631 494.534 27.9229 491.681 27.9229Z" fill="#B56F40"/>
<path d="M442.828 187.817C442.828 187.817 444.995 254.066 441.773 291.86C438.551 329.654 441.773 382.264 441.773 382.264C441.773 382.264 452.137 387.982 463.397 382.264C463.397 382.264 475.717 309.242 475.638 291.86C475.559 273.38 489.05 190.706 489.05 190.706L442.828 187.817Z" fill="#EE9849"/>
<path d="M519.497 382.275C519.497 382.275 509.134 387.999 497.873 382.275C497.873 382.275 485.558 309.258 485.638 291.876C485.669 284.062 483.285 264.8 480.516 245.164C476.724 218.299 472.226 190.727 472.226 190.727L520.22 187.723C520.22 187.723 516.264 254.082 519.508 291.876C522.751 329.67 519.497 382.275 519.497 382.275Z" fill="#EE9849"/>
<path d="M511.163 80.3901V80.4218C505.403 78.9616 499.554 77.8804 493.653 77.1851C488.874 83.5211 485.441 85.0154 481.074 86.7472C474.044 85.7704 468.121 77.1059 468.121 76.9053C463.071 77.3622 458.078 78.3082 453.211 79.7301C452.794 79.7776 430.332 82.7503 398.54 147.536C398.54 147.536 400.249 153.502 408.587 163.904C414.521 171.296 423.813 180.948 438.227 192.284C439.3 189.818 440.17 187.268 440.828 184.66C440.828 184.66 432.257 167.97 427.115 156.676C424.61 151.174 422.896 146.95 423.423 146.543C424.351 145.772 434.715 136.765 442.368 130.107C442.304 131.77 442.289 133.275 442.331 134.6C442.742 149.072 443.327 163.138 441.466 178.714C439.013 199.185 443.164 198.826 443.164 198.826C443.164 198.826 448.744 199.919 456.528 200.938C463.575 201.878 472.414 202.775 480.557 202.775C499.222 202.775 519.68 198.81 519.68 198.81C525.566 198.884 518.029 162.125 516.927 140.012C516.669 134.874 516.431 130.186 516.21 125.904C523.246 132.018 538.825 145.572 539.975 146.527C540.465 146.934 538.762 151.158 536.283 156.66C531.125 167.959 522.57 184.644 522.57 184.644C523.228 187.252 524.098 189.802 525.171 192.268C539.585 180.932 548.878 171.285 554.811 163.888C563.149 153.486 564.832 147.52 564.832 147.52C532.681 82.1589 511.163 80.3901 511.163 80.3901Z" fill="#74ACBE"/>
<path d="M456.486 200.97C448.702 199.914 443.122 198.858 443.122 198.858C443.122 198.858 438.971 199.217 441.424 178.746C443.285 163.17 442.7 149.104 442.289 134.632C442.241 133.048 442.289 131.115 442.373 128.998C443.549 130.894 456.856 152.383 460.426 168.35C463.063 179.998 459.108 193.72 456.486 200.97Z" fill="#578E9B"/>
<path d="M485.637 291.86C485.668 284.046 483.285 264.784 480.516 245.148C483.39 233.416 490.389 222.127 490.389 222.127C499.244 246.996 485.637 291.86 485.637 291.86Z" fill="#E58638"/>
<path d="M439.119 185.505C439.119 185.505 446.893 178.298 450.062 182.337C453.232 186.376 453.807 192.717 451.36 192.284C448.913 191.851 443.871 189.544 443.148 190.7C442.426 191.857 439.203 194.058 438.222 192.284C437.241 190.51 439.119 185.505 439.119 185.505Z" fill="#B56F40"/>
<path d="M440.828 184.686C440.17 187.292 439.3 189.84 438.228 192.304C423.814 180.968 414.521 171.322 408.588 163.925C413.06 163.592 419.59 161.992 427.1 156.691C432.258 167.99 440.828 184.686 440.828 184.686Z" fill="#B56F40"/>
<path d="M524.195 185.505C524.195 185.505 516.421 178.298 513.251 182.337C510.082 186.376 509.507 192.717 511.954 192.284C514.401 191.851 519.443 189.544 520.16 190.7C520.878 191.857 524.111 194.058 525.086 192.284C526.062 190.51 524.195 185.505 524.195 185.505Z" fill="#B56F40"/>
<path d="M522.486 184.686C523.145 187.292 524.014 189.84 525.086 192.304C539.5 180.968 548.793 171.322 554.727 163.925C550.254 163.592 543.725 161.992 536.209 156.691C531.051 167.99 522.486 184.686 522.486 184.686Z" fill="#B56F40"/>
<path d="M539.934 146.56C538.779 145.599 523.093 131.956 516.095 125.868C516.095 125.868 523.078 120.625 527.402 128.27C531.727 135.916 539.934 146.56 539.934 146.56Z" fill="#578E9B"/>
<path d="M564.774 147.558C564.774 147.558 563.065 153.524 554.753 163.925C545.075 163.793 564.774 147.558 564.774 147.558Z" fill="#578E9B"/>
<path d="M465.299 39.8133C465.299 39.8133 469.155 28.0285 481.791 29.8659C494.428 31.7033 495.504 34.4067 496.865 37.5429C498.225 40.6792 500.804 26.0802 500.804 26.0802L485.894 21.6504C485.894 21.6504 467.857 23.7043 466.565 26.7297L465.268 29.7603L465.299 39.8133Z" fill="#2C3A64"/>
<path d="M480.052 17.0087C480.052 17.0087 466.693 4.86491 472.426 2.26719C478.159 -0.330526 480.052 17.0087 480.052 17.0087Z" fill="#2C3A64"/>
<path d="M479.514 17.3314C479.514 17.3314 462.637 10.9638 466.998 6.43893C471.36 1.91405 479.514 17.3314 479.514 17.3314Z" fill="#2C3A64"/>
<path d="M480.616 17.6852C480.616 17.6852 477.831 2.01442 484.529 2.11474C491.227 2.21506 480.616 17.6852 480.616 17.6852Z" fill="#2C3A64"/>
<path d="M481.554 16.6608C481.554 16.6608 488.784 -0.197991 495.519 1.3807C502.254 2.9594 481.554 16.6608 481.554 16.6608Z" fill="#2C3A64"/>
<path d="M481.18 17.6854C481.18 17.6854 492.693 3.42961 498.753 6.75067C504.813 10.0717 481.18 17.6854 481.18 17.6854Z" fill="#2C3A64"/>
<path d="M357.055 398.04C357.055 398.04 357.055 391.969 357.92 389.952C358.785 387.935 361.954 379.714 361.954 379.714H374.338C374.338 379.714 376.643 387.211 376.785 389.661C376.927 392.111 376.785 398.04 376.785 398.04H357.055Z" fill="#233862"/>
<path d="M435.686 398.04C435.686 398.04 435.686 391.969 434.821 389.952C433.956 387.935 430.787 379.714 430.787 379.714H418.403C418.403 379.714 416.125 387.211 415.956 389.666C415.787 392.122 415.956 398.046 415.956 398.046L435.686 398.04Z" fill="#233862"/>
<path d="M386.061 57.3327C386.061 57.3327 385.624 70.8493 383.894 76.9053L370.239 86.4567L421.725 94.1707L409.447 77.1852C409.447 77.1852 405.755 59.0645 407.685 52.3696C409.615 45.6747 386.061 57.3327 386.061 57.3327Z" fill="#FFB27D"/>
<path d="M385.993 59.2021C385.993 59.2021 390.059 69.0122 397.733 68.7957C405.407 68.5793 407.158 59.8991 407.158 59.8991L385.993 59.2021Z" fill="#ED985F"/>
<path d="M381.415 51.2549C381.415 51.2549 378.936 38.8788 377.196 35.1301C375.455 31.3813 374.031 14.6546 393.182 13.7939C393.182 13.7939 400.528 14.6546 404.558 12.21C404.558 12.21 404.558 14.6598 403.55 15.5257C405.713 15.1448 407.936 15.3297 410.006 16.0623C412.076 16.795 413.922 18.0506 415.364 19.7074C420.549 25.4731 411.905 45.6582 412.337 50.4154L381.415 51.2549Z" fill="#B64C41"/>
<path d="M407.455 27.9229H386.253C383.399 27.9229 381.068 30.6631 381.068 34.0106V48.3244C381.068 57.4956 391.295 64.9034 396.854 65.0037C403.225 65.1146 412.639 57.1313 412.639 47.5166V34.0106C412.639 30.6631 410.324 27.9229 407.455 27.9229Z" fill="#FFB27D"/>
<path d="M381.068 41.6556C381.068 41.6556 381.1 33.0546 387.925 31.7294C394.749 30.4041 409.96 35.9216 412.117 29.6491C414.274 23.3766 382.682 23.4874 381.089 27.4896C379.497 31.4918 381.068 41.6556 381.068 41.6556Z" fill="#B64C41"/>
<path d="M358.6 187.817C358.6 187.817 360.768 254.066 357.546 291.86C354.323 329.654 357.572 382.264 357.572 382.264C357.572 382.264 367.935 387.982 379.169 382.264C379.169 382.264 391.484 309.242 391.405 291.86C391.326 273.38 404.817 190.706 404.817 190.706L358.6 187.817Z" fill="#2B478B"/>
<path d="M435.237 382.275C435.237 382.275 424.874 387.999 413.614 382.275C413.614 382.275 401.299 309.258 401.378 291.876C401.409 284.062 399.026 264.8 396.257 245.164C392.47 218.299 387.966 190.727 387.966 190.727L435.96 187.723C435.96 187.723 431.999 254.082 435.243 291.876C438.486 329.67 435.237 382.275 435.237 382.275Z" fill="#2B478B"/>
<path d="M372.26 200.97C364.47 199.914 358.89 198.858 358.89 198.858C358.89 198.858 354.745 199.217 357.192 178.746C359.054 163.17 358.474 149.104 358.057 134.632C358.009 133.048 358.057 131.115 358.141 128.998C359.333 130.909 372.624 152.399 376.2 168.366C378.805 179.998 374.881 193.72 372.26 200.97Z" fill="#27437C"/>
<path d="M426.931 80.3901V80.4218C421.173 78.9621 415.326 77.8809 409.427 77.1851C404.648 83.5211 401.215 85.0154 396.848 86.7472C389.818 85.7704 383.895 77.1059 383.895 76.9053C378.843 77.3618 373.848 78.3079 368.98 79.7301C368.563 79.7776 346.101 82.7503 314.309 147.536C314.309 147.536 316.017 153.502 324.329 163.904C330.263 171.296 339.556 180.948 353.97 192.284C355.042 189.818 355.912 187.268 356.57 184.66C356.57 184.66 347.999 167.97 342.857 156.676C340.352 151.174 338.638 146.95 339.139 146.543C340.067 145.772 350.431 136.765 358.083 130.107C358.025 131.77 358.01 133.275 358.046 134.6C358.463 149.072 359.043 163.138 357.182 178.714C354.734 199.185 358.88 198.826 358.88 198.826C358.88 198.826 364.46 199.919 372.25 200.938C379.29 201.878 388.135 202.775 396.273 202.775C414.938 202.775 435.396 198.81 435.396 198.81C441.282 198.884 433.745 162.125 432.643 140.012C432.39 134.874 432.153 130.186 431.926 125.904C438.967 132.018 454.541 145.572 455.691 146.527C456.181 146.934 454.478 151.158 451.999 156.66C446.841 167.959 438.286 184.644 438.286 184.644C438.947 187.252 439.818 189.802 440.892 192.268C455.3 180.932 464.593 171.285 470.527 163.888C478.865 153.486 480.579 147.52 480.579 147.52C448.455 82.1589 426.931 80.3901 426.931 80.3901Z" fill="#2F5196"/>
<path d="M401.405 291.86C401.437 284.046 399.053 264.784 396.284 245.148C399.159 233.416 406.157 222.127 406.157 222.127C415.012 246.996 401.405 291.86 401.405 291.86Z" fill="#233862"/>
<path d="M354.887 185.505C354.887 185.505 362.661 178.298 365.831 182.337C369.001 186.376 369.576 192.717 367.129 192.284C364.681 191.851 359.639 189.544 358.917 190.7C358.194 191.857 354.972 194.058 353.996 192.284C353.02 190.51 354.887 185.505 354.887 185.505Z" fill="#FFB27D"/>
<path d="M356.596 184.686C355.938 187.292 355.068 189.84 353.996 192.304C339.582 180.968 330.262 171.322 324.355 163.925C328.828 163.592 335.357 161.992 342.867 156.691C348.026 167.99 356.596 184.686 356.596 184.686Z" fill="#FFB27D"/>
<path d="M439.964 185.505C439.964 185.505 432.19 178.298 429.02 182.337C425.851 186.376 425.276 192.722 427.728 192.284C430.181 191.846 435.217 189.544 435.94 190.7C436.662 191.857 439.885 194.058 440.866 192.284C441.847 190.51 439.964 185.505 439.964 185.505Z" fill="#FFB27D"/>
<path d="M438.275 184.686C438.934 187.292 439.803 189.84 440.876 192.304C455.29 180.968 464.609 171.322 470.516 163.925C466.043 163.592 459.514 161.992 452.004 156.691C446.825 167.99 438.275 184.686 438.275 184.686Z" fill="#FFB27D"/>
<path d="M455.68 146.56C454.53 145.599 438.84 131.956 431.841 125.868C431.841 125.868 438.829 120.625 443.148 128.27C447.468 135.916 455.68 146.56 455.68 146.56Z" fill="#2B478B"/>
<path d="M480.548 147.558C480.548 147.558 478.834 153.524 470.495 163.925C460.844 163.793 480.548 147.558 480.548 147.558Z" fill="#2B478B"/>
<path d="M384.617 73.6094C383.9 73.9515 383.266 74.4463 382.759 75.0591C382.253 75.6719 381.886 76.3881 381.685 77.1575C381.685 77.1575 390.851 86.598 396.853 86.7458L384.617 73.6094Z" fill="#EE9849"/>
<path d="M396.854 86.7478L408.689 73.1309C408.689 73.1309 411.136 74.7412 411.099 77.3918C411.099 77.3918 401.943 87.1226 396.854 86.7478Z" fill="#EE9849"/>
<path d="M394.722 85.7446C394.722 85.7446 385.688 163.815 388.831 173.335C390.25 177.543 392.097 181.595 394.343 185.426C394.625 185.911 395.029 186.314 395.516 186.594C396.002 186.874 396.553 187.021 397.114 187.021C397.675 187.021 398.226 186.874 398.713 186.594C399.199 186.314 399.603 185.911 399.886 185.426C402.28 181.255 405.418 175.225 405.418 172.162C405.418 167.199 398.562 85.6865 398.562 85.6865L394.722 85.7446Z" fill="#EE9849"/>
<path d="M392.354 81.9159C392.354 81.9159 397.818 81.3879 401.141 81.7047C401.292 81.7208 401.438 81.7743 401.563 81.8605C401.689 81.9468 401.791 82.063 401.861 82.1987C401.93 82.3344 401.965 82.4853 401.962 82.6378C401.959 82.7903 401.918 82.9396 401.842 83.0722C400.914 84.7512 399.01 87.6658 397.022 87.6658C394.232 87.6499 389.881 82.1113 392.354 81.9159Z" fill="#E58638"/>
<path d="M736.688 47.1103C736.688 47.1103 731.615 32.6803 731.346 28.9315C731.077 25.1828 732.759 14.3695 745.227 13.2027C757.695 12.0358 762.352 10.7158 762.352 10.7158L759.994 13.5406C761.2 13.2523 762.453 13.2189 763.673 13.4425C764.892 13.6662 766.052 14.1419 767.078 14.8394C770.69 17.2154 772.526 24.243 771.982 30.299C771.439 36.3551 766.708 43.0236 766.65 45.5263C766.592 48.029 736.688 47.1103 736.688 47.1103Z" fill="#233862"/>
<path d="M702.659 196.835C702.659 196.835 702.369 200.135 698.936 207.3C698.936 207.3 697.354 212.173 707.67 219.486C717.986 226.798 707.954 196.835 707.954 196.835H702.659Z" fill="#D9935C"/>
<path d="M739.046 69.4805C739.046 69.4805 733.244 100.474 726.952 132.841C720.096 168.032 712.623 204.86 711.278 205.309C708.704 206.169 704.759 202.795 703.04 198.497C701.658 195.039 699.29 166.606 700.93 148.232C701.179 144.727 701.631 141.24 702.285 137.788C704.859 126.172 705.645 85.0934 713.361 78.6518C721.077 72.2102 739.046 69.4805 739.046 69.4805Z" fill="#D9935C"/>
<path d="M739.045 69.4805C739.045 69.4805 735.707 87.3427 731.345 110.11C729.964 117.338 728.471 125.053 726.952 132.851C720.771 144.995 715.465 153.227 713.83 151.674C710.486 148.506 704.616 148.126 700.903 148.242C701.152 144.738 701.605 141.25 702.259 137.798C702.459 136.88 702.654 135.776 702.839 134.525C705.001 119.915 706.225 84.5918 713.35 78.6518C721.082 72.1997 739.045 69.4805 739.045 69.4805Z" fill="#739AF0"/>
<path d="M731.345 110.113C729.964 117.341 728.471 125.055 726.952 132.854C720.771 144.998 715.465 153.229 713.83 151.677C710.486 148.509 704.616 148.129 700.903 148.245C701.152 144.74 701.605 141.253 702.259 137.801C702.459 136.882 702.654 135.779 702.839 134.528L721.372 89.7637L731.345 110.113Z" fill="#4A75CB"/>
<path d="M764.694 69.0214C764.831 62.77 764.725 55.2937 763.881 49L738.956 53.0814C738.956 53.0814 738.956 60.6897 739.067 69.1429C739.067 69.1429 738.386 76.9835 748.033 78.1187C757.679 79.2539 764.952 75.0722 764.694 69.0214Z" fill="#D9935C"/>
<path d="M738.897 54.6191C738.897 54.6191 744.768 66.6626 751.503 66.6626C758.238 66.6626 764.529 55.3372 764.529 55.3372L738.897 54.6191Z" fill="#CB7D45"/>
<path d="M755.501 399.789C755.501 399.789 756.408 392.719 758.507 388.511C760.606 384.303 773.971 386.985 773.971 386.985C773.971 386.985 776.645 389.276 777.22 399.984L755.501 399.789Z" fill="#233862"/>
<path d="M709.964 399.7C713.102 397.783 711.314 383.469 711.314 383.469C711.314 383.469 696.684 371.748 694.669 380.718C692.655 389.689 680.767 393.723 674 394.821C669.327 395.581 667.882 398.168 667.434 399.7H709.964Z" fill="#233862"/>
<path d="M739.7 55.5102C742.12 57.4162 749.193 59.3117 751.271 59.5335C751.271 59.5335 761.819 57.1839 763.718 56.0276C766.682 54.2272 766.492 50.5893 766.639 45.5259C766.824 39.5332 767.425 34.8288 766.761 31.3757C765.964 27.2415 763.348 24.892 756.023 24.2531C742.569 23.081 736.968 26.4548 736.736 30.9692C736.672 32.1835 736.614 33.3398 736.577 34.4328C736.039 48.509 737.152 53.5038 739.7 55.5102Z" fill="#D9935C"/>
<path d="M740.275 293.311C739.767 295.928 739.415 298.573 739.22 301.231C737.864 327.795 716.884 388.536 713.134 389.935C707.333 392.126 698.187 387.47 693.404 385.944C692.434 385.658 691.603 385.023 691.072 384.162C690.54 383.3 690.345 382.273 690.524 381.276C700.914 333.466 704.727 264.625 706.12 223.863C706.821 203.335 710.339 189.153 710.339 189.153C710.339 189.153 761.497 175.488 761.803 192.775C762.051 208.081 744.837 268.073 740.275 293.311Z" fill="#2B478B"/>
<path d="M740.275 293.311L706.099 223.874C706.8 203.345 710.318 189.163 710.318 189.163C710.318 189.163 761.476 175.499 761.782 192.785C762.051 208.082 744.837 268.073 740.275 293.311Z" fill="#233862"/>
<path d="M728.877 192.849L755.922 389.086C755.922 389.086 767.8 391.953 777.019 389.661C777.019 389.661 784.93 285.292 784.276 260.058C783.622 234.825 789.961 192.543 782.831 187.881C775.7 183.219 728.877 192.849 728.877 192.849Z" fill="#2B478B"/>
<path d="M786.749 187.881C786.772 188.421 786.687 188.961 786.499 189.468C786.31 189.975 786.022 190.44 785.651 190.833C785.281 191.227 784.835 191.542 784.34 191.761C783.846 191.979 783.313 192.096 782.772 192.105L740.153 192.723L708.846 193.203C707.38 193.203 712.01 181.487 712.11 104.927C712.11 87.8459 738.549 69.4609 739.008 69.4609C739.008 71.9214 742.879 76.4622 748.844 76.8529C755.922 77.3176 764.609 73.7958 764.609 69.7091C765.405 70.5671 766.124 71.4948 766.755 72.4811C770.289 77.6397 777.409 90.2114 781.955 112.081C785.541 129.363 784.165 152.468 786.749 182.305C786.971 184.459 786.696 186.387 786.749 187.881Z" fill="#FFA412"/>
<path d="M785.177 192.319C785.177 192.319 779.513 194.859 768.917 197.071C758.543 199.166 747.988 200.228 737.405 200.239C716.694 200.371 708.846 193.228 708.846 193.228C707.38 193.228 712.01 181.511 712.11 104.951C712.11 87.8703 738.549 69.4854 739.008 69.4854C739.008 69.4854 738.37 92.2263 745.226 98.9161C745.226 98.9161 754.867 91.4607 767.377 70.2457C770.911 75.399 777.435 90.2252 781.981 112.106C782.927 116.904 783.573 121.757 783.917 126.636C785.125 141.732 784.856 160.169 786.775 182.303C786.96 184.457 786.686 186.369 786.738 187.879C786.839 190.149 787.445 192.282 785.177 192.319Z" fill="#739AF0"/>
<path d="M785.178 192.321C785.178 192.321 779.514 194.861 768.918 197.073C765.579 191.983 761.381 182.817 760.796 168.324C759.815 143.84 783.042 112.313 783.042 112.313L783.928 126.654C785.136 141.75 784.867 160.187 786.786 182.321C786.971 184.475 786.697 186.387 786.75 187.897C786.839 190.151 787.446 192.284 785.178 192.321Z" fill="#4A75CB"/>
<path d="M765.062 109.424L725.467 132.311L756.823 186.683L796.419 163.797L765.062 109.424Z" fill="#2B478B"/>
<path d="M802.614 160.277C802.614 160.277 794.507 161.069 780.642 159.643C767.733 158.259 754.979 155.687 742.542 151.961L746.956 144.41C746.956 144.41 765.01 143.618 778.232 141.675C781.137 141.283 784.017 140.727 786.86 140.012C789.734 139.241 775.463 103.052 768.264 81.7366C766.544 76.6573 765.231 72.4227 764.646 69.7246C764.646 69.7246 765.906 69.9305 767.884 70.3212C773.485 71.4248 784.877 74.0172 789.724 77.7133C796.285 82.6659 812.656 138.639 802.614 160.277Z" fill="#D9935C"/>
<path d="M747.115 144.41C747.115 144.41 741.002 138.676 738.634 138.676C736.266 138.676 729.462 141.163 728.766 143.074C728.07 144.985 727.791 148.428 729.737 149.188C731.683 149.948 739.757 151.865 741.835 152.055C743.913 152.245 749.061 151.099 747.115 144.41Z" fill="#D9935C"/>
<path d="M802.614 160.277C802.614 160.277 794.507 161.069 780.642 159.644C781.407 155.874 782.119 148.508 778.232 141.692C781.137 141.299 784.017 140.744 786.86 140.028C789.734 139.258 775.463 103.068 768.264 81.753C767.689 74.889 767.388 70.2637 767.388 70.2637L767.884 70.3376C773.485 71.4411 784.877 74.0336 789.724 77.7296C796.285 82.6664 812.656 138.64 802.614 160.277Z" fill="#739AF0"/>
<path d="M745.227 98.9161C745.227 98.9161 764.509 90.4102 764.799 89.7396C765.089 89.0691 763.844 83.9317 762.504 82.3847C762.504 82.3847 771.766 83.24 772.341 82.0943C772.915 80.9485 773.105 71.3919 773.105 71.3919C773.105 71.3919 769.477 67.5692 764.704 67.168C764.704 67.168 760.521 77.543 758.976 80.6476C754.878 88.879 745.227 98.9161 745.227 98.9161Z" fill="#4A75CB"/>
<path d="M740.653 82.0945C740.653 82.0945 741.893 92.0366 745.237 98.9163C745.237 98.9163 735.163 91.894 734.304 89.5973C733.444 87.3005 736.74 82.8601 736.74 82.8601C736.74 82.8601 730.728 82.7175 730.58 80.7112C730.432 78.7048 732.442 70.8166 732.442 70.8166C732.442 70.8166 737.616 67.0362 739.05 67.1787L740.653 82.0945Z" fill="#4A75CB"/>
<path d="M736.456 38.9473C736.456 38.9473 736.984 29.9714 742.542 29.8658C748.101 29.7602 757.779 29.2164 761.798 25.4307C765.817 21.645 737.906 23.3768 737.906 23.3768C737.906 23.3768 734.531 34.1848 736.456 38.9473Z" fill="#233862"/>
<path d="M758.797 26.7659C758.797 26.7659 766.049 29.7227 767.067 34.3373C767.067 34.3215 769.451 17.3254 758.797 26.7659Z" fill="#233862"/>
<path d="M291.056 354.111L297.063 379.439L306.06 379.392L306.387 354.111H291.056Z" fill="#FFB27D"/>
<path d="M366.743 355.188L383.836 379.439L390.498 370.875L380.213 351.856L366.743 355.188Z" fill="#FFB27D"/>
<path d="M305.301 37.8431C301.904 36.7238 298.217 37.2729 295.696 37.9382C296.163 37.356 296.769 36.9019 297.458 36.6182C295.828 36.7026 292.616 38.9889 292.616 38.9889C268.883 34.9391 271.963 68.0923 273.941 75.5371C275.919 82.9819 268.556 87.0317 258.298 95.2843C238.726 111.029 239.839 126.595 239.839 126.595C240.029 126.663 240.229 126.743 240.445 126.832C241.157 124.773 242.697 120.871 244.475 119.968C243.827 122.605 243.313 125.273 242.935 127.962C250.371 131.574 264.622 140.022 274.579 146.036C274.236 144.536 273.867 142.382 274.189 141.141L276.488 147.197C281.82 150.429 285.507 152.715 285.507 152.715C283.724 146.733 305.332 108.891 318.043 96.3245C320.553 90.3475 319.952 80.8065 319.899 80.0568C320.764 87.5438 320.337 91.9262 319.683 94.4818C329.814 80.5425 314.298 40.8052 305.301 37.8431Z" fill="#163560"/>
<path d="M314.688 98.8389C314.762 98.8706 307.473 102.662 301.988 101.157C296.83 99.7523 293.46 93.0574 293.55 93.0416C295.733 92.6033 296.366 89.5991 296.318 76.6738L297.305 76.8692L313.913 80.1586C313.913 80.1586 313.533 85.391 313.523 90.3224C313.491 94.4724 313.744 98.3954 314.688 98.8389Z" fill="#FFB27D"/>
<path d="M288.048 46.8578C288.048 46.8578 294.377 36.6781 306.075 42.7659C306.075 42.7712 300.004 42.9296 288.048 46.8578Z" fill="#5FABB7"/>
<path d="M313.891 80.1683C313.891 80.1683 313.512 85.4007 313.501 90.3321C304.208 90.0681 299.298 81.5833 297.283 76.8789L313.891 80.1683Z" fill="#EF9E67"/>
<path d="M293.867 77.4604C293.867 77.4604 287.575 70.8763 285.128 64.6513C283.382 60.2056 282.285 42.6446 299.937 41.6414C303.488 41.4255 307.042 42.0101 310.338 43.3521C314.557 45.1156 321.033 49.4716 318.027 65.5911L317.5 70.945L293.867 77.4604Z" fill="#163560"/>
<path d="M388.9 365.336C388.9 365.336 384.485 366.101 380.862 366.392C380.055 366.45 379.28 366.487 378.62 366.487C376.88 366.487 373.737 365.832 371.622 365.336L371.464 365.304C370.541 365.082 369.834 364.903 369.57 364.834L369.459 364.808C369.459 364.808 347.445 340.261 335.104 300.962C334.814 300.043 334.508 299.125 334.192 298.19C327.43 278.464 313.428 253.711 306.044 231.298C304.873 227.735 303.818 224.367 302.879 221.192C302.579 220.173 302.283 219.175 302.004 218.193C296.561 199.269 294.989 186.845 293.539 173.571L337.915 184.876C337.915 184.876 356.527 265.713 388.9 365.336Z" fill="#A53D38"/>
<path d="M316.799 82.7962C316.799 82.7962 295.318 87.5059 292.596 74.0685C289.875 60.6311 285.271 52.1886 298.872 48.6141C312.474 45.0396 316.182 49.6278 318.181 53.894C320.18 58.1601 322.316 81.2281 316.799 82.7962Z" fill="#FFB27D"/>
<path d="M308.623 46.3076C308.623 46.3076 305.897 63.2667 297.305 67.4272C288.714 71.5878 284.305 69.951 284.305 69.951C287.981 65.1204 289.866 59.1608 289.637 53.0923C289.637 53.0923 302.658 39.6971 308.623 46.3076Z" fill="#163560"/>
<path d="M307.415 47.8803C307.415 47.8803 312.531 50.5203 314.271 53.6882C316.012 56.8562 317.963 63.8415 319.941 63.1921C319.941 63.1921 322.23 51.5763 316.012 46.5234C309.44 41.1854 307.415 47.8803 307.415 47.8803Z" fill="#163560"/>
<path d="M296.757 378.052C297.13 381.556 296.739 385.099 295.612 388.437C295.612 388.437 294.141 395.153 300.749 395.301C307.358 395.449 308.977 394.773 308.228 390.681C307.479 386.589 306.06 379.44 306.06 379.44L296.757 378.052Z" fill="#FFB27D"/>
<path d="M295.612 388.411C295.612 388.411 294.388 394.746 295.137 398.126C295.137 398.126 297.131 399.625 301.93 399.625C306.482 399.625 308.855 398.126 308.855 398.126C308.855 398.126 308.992 391.172 307.8 388.236C307.779 388.236 303.096 395.274 295.612 388.411Z" fill="#C45446"/>
<path d="M406.426 391.309C406.426 391.309 394.243 377.766 390.498 370.876L381.438 375.528L401.695 394.567L406.442 393.944L406.426 391.309Z" fill="#FFB27D"/>
<path d="M414.167 399.244C414.167 399.244 401.072 399.244 398.825 398.991C396.578 398.737 394.775 395.495 392.343 390.627C391.346 388.637 389.116 387.539 386.827 386.931V398.209H383.367L380.092 386.224C377.934 382.253 379.918 378.652 381.436 375.521C383.203 375.521 387.955 376.725 396.958 386.879C399.917 390.21 403.181 391.403 406.451 391.303C406.494 391.331 406.54 391.354 406.589 391.372C414.041 394.751 414.167 399.244 414.167 399.244Z" fill="#C45446"/>
<path d="M380.863 366.376C380.056 366.434 379.281 366.471 378.621 366.471C376.881 366.471 373.738 365.817 371.623 365.32L371.464 365.289L369.571 364.819L369.46 364.792C369.46 364.792 347.446 340.261 335.105 300.962C334.815 300.044 334.509 299.125 334.193 298.19C327.431 278.464 313.429 253.712 306.045 231.298C304.874 227.736 303.819 224.367 302.88 221.192C302.58 220.173 302.284 219.175 302.005 218.193L309.847 212.227C309.847 212.227 333.407 250.401 340.706 286.353C346.745 316.148 372.783 354.781 380.863 366.376Z" fill="#912F2F"/>
<path d="M310.643 289.701C310.781 307.183 309.895 347.375 307.621 364.017C307.621 364.017 305.464 365.928 300.116 365.95C294.637 365.95 292.205 363.948 292.205 363.948C286.499 335.019 282.443 311.08 279.484 290.451C277.063 273.523 274.906 259.008 273.25 246.516C271.784 235.428 270.703 225.956 270.186 217.777C270.119 216.668 270.059 215.582 270.007 214.519C269.943 213.12 269.891 211.752 269.87 210.438C269.848 209.123 269.838 207.798 269.87 206.557H270.059L281.082 205.501L315.918 202.063C315.316 232.693 310.585 279.542 310.643 289.701Z" fill="#A53D38"/>
<path d="M300.132 365.95C297.353 366.108 294.591 365.41 292.221 363.948C286.514 335.019 282.459 311.08 279.5 290.451C277.079 273.523 274.922 259.008 273.266 246.516C271.8 235.428 270.718 225.956 270.202 217.777C270.144 213.748 270.096 209.883 270.054 206.536C270.012 203.188 269.948 200.274 269.854 198.272L281.077 205.464L292.885 213.025C292.885 213.025 276.135 228.279 280.228 257.118C284.32 285.958 294.404 361.868 300.132 365.95Z" fill="#912F2F"/>
<path d="M309.261 92.4826C309.261 92.4826 327.161 89.6366 333.168 95.6242C340.552 102.958 354.359 145.003 353.806 149.802C353.6 151.634 346.332 150.784 343.843 148.171C331.428 135.134 313.622 102.235 309.261 92.4826Z" fill="#BC3F3F"/>
<path d="M344.033 209.888C330.668 213.368 268.308 220.226 267.77 204.608C267.638 200.796 267.77 196.16 268.07 191.202C268.999 175.753 271.535 156.666 272.749 146.164C273.302 141.354 271.456 119.764 272.875 108.042C273.031 106.522 273.319 105.019 273.735 103.549C276.43 94.6835 288.529 92.2811 294.741 92.0647L313.491 91.4258C313.491 91.4258 332.852 113.074 335.547 119.727C338.242 126.379 339.123 149.136 341.232 160.161C343.342 171.186 350.531 208.198 344.033 209.888Z" fill="#BC3F3F"/>
<path d="M307.204 157.046C307.204 157.046 296.782 189.09 268.07 191.186C268.999 175.737 271.535 156.65 272.748 146.148C273.302 141.338 271.456 119.748 272.875 108.026C273.244 108.106 273.587 108.311 273.977 108.391C305.59 114.5 310.073 150.361 307.204 157.046Z" fill="#A53D38"/>
<path d="M352.904 150.592C352.904 150.592 334.086 156.77 311.16 146.859C311.16 146.859 304.91 146.268 301.814 147.055C301.814 147.055 302.479 140.856 305.506 139.167C308.534 137.477 321.571 141.131 325.469 140.592C333.992 139.42 348.828 138.507 352.904 150.592Z" fill="#EF9E67"/>
<path d="M336.132 136.163C336.132 136.163 337.899 120.852 331.913 111.622C331.913 111.622 334.023 110.904 335.547 113.301C337.071 115.698 347.63 138.444 342.598 140.118C337.567 141.792 336.132 136.163 336.132 136.163Z" fill="#A53D38"/>
<path d="M308.66 138.719C308.391 138.719 299.773 139.849 298.244 140.926C296.714 142.003 298.065 145.778 300.939 146.137C303.813 146.496 308.66 138.719 308.66 138.719Z" fill="#EF9E67"/>
<path d="M285.101 144.521C285.101 144.521 309.646 143.623 331.913 139.31C331.913 139.31 335.985 139.341 335.505 142.905C335.025 146.469 296.915 166.38 288.534 162.546L285.101 144.521Z" fill="#FFB27D"/>
<path d="M331.913 139.31C331.913 139.31 334.518 136.142 336.132 136.142C337.746 136.142 341.971 138.206 342.598 140.096C343.226 141.986 337.604 140.624 335.505 142.884C333.406 145.144 331.913 139.31 331.913 139.31Z" fill="#FFB27D"/>
<path d="M294.747 92.0498C294.747 92.0498 274.12 92.1026 271.104 99.521C265.592 113.064 283.761 157.992 288.534 162.548C290.591 164.507 300.137 161.419 300.137 148.477C300.132 141.766 299.652 102.557 294.747 92.0498Z" fill="#BC3F3F"/>
<path d="M284.272 205.622C284.272 205.622 297.547 210.216 295.68 225.522C295.68 225.522 294.457 231.737 290.633 228.98C286.809 226.224 288.602 226.731 283.144 222.967C277.685 219.202 274.146 213.257 274.779 208.563L284.272 205.622Z" fill="#FFB27D"/>
<path d="M284.9 206.609L277.041 216.156C276.859 216.371 276.622 216.533 276.356 216.626C276.09 216.719 275.804 216.739 275.528 216.684C268.144 215.327 242.791 198.959 234.485 192.28C233.766 191.718 233.079 191.117 232.428 190.479C229.332 187.311 218.647 171.73 211.063 157.843C206.701 149.844 203.363 142.415 203.099 138.249C202.155 123.386 209.955 102.599 209.955 102.599C233.056 110.645 235.487 129.115 235.487 129.115L248.308 176.883L284.589 204.028C284.781 204.174 284.943 204.358 285.063 204.569C285.184 204.779 285.261 205.012 285.29 205.253C285.319 205.493 285.299 205.738 285.232 205.971C285.165 206.204 285.052 206.421 284.9 206.609Z" fill="#739AF0"/>
<path d="M234.485 192.299C233.767 191.738 233.08 191.137 232.429 190.499C229.333 187.331 218.647 171.75 211.063 157.864C210.082 149.469 210.757 141.602 214.228 136.095C214.212 136.095 233.853 170.694 234.485 192.299Z" fill="#4A82D3"/>
<path d="M221.173 329.802L217.244 346.17L214.812 356.318L206.722 390.111C206.722 390.111 199.797 392.223 192.598 390.111C190.83 381.859 189.914 373.448 189.866 365.009C189.824 357.712 190.488 349.66 192.619 342.062C193.469 338.974 194.599 335.969 195.995 333.086C207.397 309.744 221.173 329.802 221.173 329.802Z" fill="#FFB27D"/>
<path d="M227.877 400H189.867C189.554 396.212 189.911 392.397 190.922 388.733C191.166 387.905 191.467 387.095 191.824 386.31C191.824 386.31 200.315 388.237 207.646 386.31C207.646 386.31 214.528 392.181 218.69 393.976C222.851 395.771 227.439 394.8 227.877 400Z" fill="#2B478B"/>
<path d="M217.244 346.196L214.812 356.344C207.264 361.096 198.732 364.059 189.866 365.009C189.824 357.712 190.488 349.66 192.619 342.062C196.116 340.283 199.676 339.354 202.709 339.882C210.245 341.202 214.733 343.963 217.244 346.196Z" fill="#E8945B"/>
<path d="M208.126 400H189.867C189.554 396.211 189.911 392.397 190.922 388.732C195.51 390.158 204.851 393.748 208.126 400Z" fill="#1F396D"/>
<path d="M190.858 329.803L186.929 346.171L184.503 356.319L176.407 390.111C176.407 390.111 169.483 392.223 162.283 390.111C160.51 381.853 159.591 373.435 159.541 364.989C159.499 357.692 160.169 349.64 162.294 342.042C163.144 338.953 164.274 335.949 165.669 333.066C177.082 309.744 190.858 329.803 190.858 329.803Z" fill="#FFB27D"/>
<path d="M161.513 386.31C161.513 386.31 170.004 388.237 177.335 386.31C177.335 386.31 184.192 392.181 188.379 393.981C192.567 395.782 197.134 394.8 197.572 400H159.546C159.546 400 158.75 392.403 161.513 386.31Z" fill="#2B478B"/>
<path d="M186.929 346.196L184.503 356.344C176.95 361.097 168.412 364.06 159.541 365.009C159.499 357.712 160.169 349.66 162.294 342.062C165.796 340.283 169.356 339.354 172.383 339.882C179.93 341.202 184.419 343.963 186.929 346.196Z" fill="#E8945B"/>
<path d="M229.106 345.115C228.661 346.76 227.687 348.212 226.336 349.248C224.984 350.283 223.329 350.844 221.627 350.844H160.648C159.563 350.844 158.489 350.62 157.495 350.185C156.5 349.75 155.606 349.114 154.868 348.317C154.131 347.52 153.566 346.578 153.209 345.552C152.853 344.526 152.712 343.437 152.795 342.354C153.433 334.038 155.722 320.457 156.719 311.291C157.13 307.479 157.32 304.427 157.083 302.843C150.928 262.071 145.76 214.044 146.392 204.868C146.477 203.574 146.54 202.903 146.54 202.903C146.54 202.903 150.981 202.529 157.737 202.27C177.372 201.494 216.569 201.626 223.083 214.483C229.718 227.572 233.726 314.533 233.726 314.533C234.696 322.654 231.268 337.105 229.106 345.115Z" fill="#C65447"/>
<path d="M156.719 311.291C157.13 307.479 157.32 304.427 157.083 302.843C150.928 262.071 145.76 214.044 146.392 204.867C146.477 203.574 146.54 202.903 146.54 202.903C146.54 202.903 150.981 202.528 157.737 202.27C167.895 208.257 174.509 218.463 174.509 218.463C174.509 218.463 172.462 294.759 156.719 311.291Z" fill="#B2443B"/>
<path d="M186.881 42.115C186.881 37.5901 189.708 33.7463 194.581 34.966C198.964 36.0642 203.246 36.022 203.246 40.5416C203.246 45.0612 199.581 50.3041 195.061 50.3041C192.891 50.3041 190.811 49.4413 189.277 47.9056C187.743 46.3698 186.881 44.2869 186.881 42.115Z" fill="#B2443B"/>
<path d="M192.066 81.8782C192.066 81.8782 166.692 59.0003 189.661 42.8068C189.661 42.8068 196.517 40.98 200.003 41.6347C200.003 41.6347 212.487 37.9757 219.797 46.4658C227.107 54.9559 230.277 61.0965 224.016 68.6731C217.756 76.2498 192.066 81.8782 192.066 81.8782Z" fill="#C65447"/>
<path d="M162.969 220.058C162.969 220.058 169.234 232.645 157.194 242.26C157.194 242.26 151.972 245.834 151.171 241.204C150.369 236.573 151.297 238.178 150.037 231.663C148.776 225.147 150.385 218.41 154.129 215.475L162.969 220.058Z" fill="#FFB27D"/>
<path d="M212.852 81.668C212.852 81.668 212.54 85.0946 211.96 89.7251C211.681 91.9849 211.333 94.5351 210.905 97.117C210.615 98.9703 210.294 100.839 209.94 102.624L202.087 129.187L183.628 99.2976C183.628 99.2976 187.963 95.7073 193.839 76.2455C193.897 76.0396 193.933 75.9287 193.933 75.9287L212.852 81.668Z" fill="#FFB27D"/>
<path d="M223.621 212.718C223.858 215.701 223.093 216.245 223.093 216.245C223.093 216.245 211.749 220.358 183.221 218.938C180.136 218.779 177.23 218.626 174.514 218.463C156.128 217.38 146.292 216.245 146.292 216.245C146.292 216.245 131.235 181.45 159.525 138.576C162.967 133.396 166.757 128.457 170.87 123.792C175.453 118.56 176.465 111.558 178.195 104.906C178.691 102.999 177.256 102.577 177.974 100.782C177.974 100.782 183.132 99.3193 183.664 99.3193C186.597 101.907 190.463 106.928 200.051 107.92C206.538 108.602 209.08 104.943 210.003 102.746C212.477 103.644 215.035 105.185 217.134 106.194C234.538 114.552 236.12 130.756 236.12 130.756C236.12 130.756 220.145 183.34 219.154 189.893C218.7 192.802 222.366 197.343 223.621 212.718Z" fill="#739AF0"/>
<path d="M211.959 89.7255C211.68 91.9853 210.72 98.1734 210.314 100.755C190.8 93.1311 193.337 78.2734 193.869 76.2406C193.927 76.0347 193.964 75.9238 193.964 75.9238C193.964 75.9238 204.301 83.2682 211.959 89.7255Z" fill="#E8945B"/>
<path d="M216.147 92.3483C216.147 92.3483 193.585 93.0769 193.353 79.0006C193.121 64.9244 190.046 55.542 204.428 54.486C218.811 53.43 221.717 58.7522 222.935 63.4302C224.154 68.1082 222.039 91.7991 216.147 92.3483Z" fill="#FFB27D"/>
<path d="M218.12 52.3807C218.12 52.3807 216.702 75.8764 189.197 73.3526C189.197 73.3526 189.783 40.8124 218.12 52.3807Z" fill="#C65447"/>
<path d="M212.852 54.7129C212.852 54.7129 220.562 64.2643 224.059 67.3108C224.059 67.3108 232.629 54.9927 212.852 54.7129Z" fill="#C65447"/>
<path d="M212.852 54.7129C212.852 54.7129 219.776 66.4185 223.273 69.4703C223.273 69.4703 232.629 54.9927 212.852 54.7129Z" fill="#C65447"/>
<path d="M174.509 218.463C156.124 217.38 146.287 216.245 146.287 216.245C146.287 216.245 131.23 181.45 159.52 138.576C165.248 151.94 178.755 187.664 174.509 218.463Z" fill="#4A82D3"/>
<path d="M183.659 99.293C183.659 99.293 161.83 103.776 152.11 115.054C144.657 123.687 136.509 165.921 136.509 172.902C136.509 179.57 144.161 215.025 148.94 221.821C149.101 222.053 149.322 222.238 149.579 222.356C149.836 222.474 150.12 222.52 150.401 222.491L162.695 221.187C162.937 221.16 163.171 221.084 163.383 220.964C163.595 220.844 163.781 220.682 163.929 220.488C164.077 220.294 164.184 220.072 164.243 219.836C164.303 219.599 164.315 219.353 164.277 219.112L157.384 174.295L181.644 131.248C181.644 131.248 195.921 114.288 183.659 99.293Z" fill="#739AF0"/>
<path d="M277.3 387.866C277.932 388.983 278.786 389.959 279.808 390.734C280.83 391.51 281.999 392.068 283.244 392.375C285.691 392.846 287.883 394.194 289.409 396.166C289.672 396.524 289.831 396.948 289.868 397.391C289.905 397.834 289.819 398.279 289.619 398.676C289.419 399.073 289.113 399.406 288.736 399.64C288.358 399.874 287.923 399.998 287.479 399.999H266.683C266.265 400 265.851 399.913 265.468 399.743C265.086 399.574 264.743 399.326 264.462 399.015C264.181 398.705 263.969 398.339 263.838 397.941C263.707 397.543 263.662 397.122 263.704 396.705C263.862 395.163 264.025 393.368 264.094 391.99C264.247 388.986 267.258 386.567 267.258 386.567L277.3 387.866Z" fill="#2C3A64"/>
<path d="M282.01 335.367C282.875 351.207 280.718 387.175 280.718 387.175C280.718 387.175 279.268 391.188 270.117 392.148C266.988 392.43 263.834 392.171 260.793 391.383C258.947 382.868 257.238 374.74 255.666 367C244.364 311.481 239.971 277.203 239.971 277.203L284.589 266.822C284.589 266.822 282.633 298.164 282.058 319.538C281.863 326.196 281.82 331.893 282.01 335.367Z" fill="#35488B"/>
<path d="M284.574 266.807C284.574 266.807 282.617 298.149 282.042 319.522L255.672 367C244.364 311.481 239.971 277.203 239.971 277.203L284.574 266.807Z" fill="#2C3A64"/>
<path d="M239.712 195.025C239.712 195.025 222.45 187.152 209.387 194.037C196.323 200.922 204.308 257.73 222.988 263.237C222.988 263.237 257.982 274.436 239.712 195.025Z" fill="#35488B"/>
<path d="M289.657 280.049C289.605 279.97 289.546 279.901 289.488 279.827C288.771 278.739 287.215 274.843 287.215 274.843L284.42 278.539C284.346 278.623 283.239 277.757 283.181 277.847L283.455 287.351L286.24 286.691C286.359 286.66 286.476 286.617 286.588 286.564C286.938 286.405 287.233 286.146 287.437 285.82L289.684 282.256C289.895 281.925 290.004 281.54 290 281.148C289.995 280.756 289.876 280.374 289.657 280.049Z" fill="#E8945B"/>
<path d="M276.783 186.196C276.783 186.196 282.284 186.196 285.57 193.947C292.373 209.983 289.42 244.604 289.003 249.562C289.003 249.562 291.345 259.404 287.869 276.426L283.344 279.109C283.344 279.109 276.372 211.852 277.221 205.188C278.07 198.525 276.783 186.196 276.783 186.196Z" fill="#E8945B"/>
<path d="M241.099 387.866C241.731 388.983 242.584 389.959 243.606 390.734C244.628 391.51 245.797 392.068 247.042 392.375C249.49 392.846 251.682 394.194 253.208 396.166C253.471 396.524 253.629 396.948 253.666 397.391C253.703 397.834 253.617 398.279 253.417 398.676C253.217 399.073 252.912 399.406 252.534 399.64C252.156 399.874 251.722 399.998 251.278 399.999H230.477C230.058 400 229.645 399.913 229.262 399.743C228.88 399.574 228.537 399.326 228.257 399.015C227.976 398.704 227.764 398.338 227.634 397.94C227.504 397.542 227.459 397.121 227.502 396.705C227.655 395.163 227.818 393.368 227.887 391.99C228.04 388.986 231.052 386.567 231.052 386.567L241.099 387.866Z" fill="#2C3A64"/>
<path d="M255.566 122.741C251.114 122.741 245.545 124.658 242.533 127.578C239.369 130.672 236.036 130.83 233.678 134.489C231.215 138.301 229.691 142.261 230.93 147.625C232.281 153.486 231.985 159.151 235.677 163.465C237.497 165.577 240.461 165.836 242.533 167.795C246.325 171.385 250.64 172.547 255.566 172.547C264.843 172.547 270.618 167.045 275.364 160.186C279.172 154.695 278.418 150.994 279.309 146.295C282.121 131.474 269.795 122.741 255.566 122.741Z" fill="#35488B"/>
<path d="M268.625 182.363L250.893 191.439L247.354 179.121C247.354 179.121 249.612 174.86 250.635 167.875C251.122 164.519 251.246 161.12 251.004 157.737L265.45 165.129C265.191 166.22 264.999 167.326 264.875 168.44C264.543 171.017 264.628 173.63 265.128 176.18C265.634 178.54 266.684 180.784 268.625 182.363Z" fill="#FFB27D"/>
<path d="M227.539 271.628C227.539 271.628 224.163 316.371 224.902 387.682C227.717 389.071 230.75 389.964 233.867 390.322C243.028 391.236 245.259 387.598 245.259 387.598C245.259 387.598 254.626 352.797 256.973 337.116C259.13 322.659 273.323 270.487 273.323 270.487L227.539 271.628Z" fill="#35488B"/>
<path d="M280.349 183.61C278.767 182.871 273.83 180.886 266.383 179.661C266.462 182.211 265.782 184.592 261.309 185.178C255.355 185.954 250.033 181.889 247.338 179.122C247.338 179.122 243.119 179.576 238.246 180.648C235.724 181.183 233.241 181.889 230.815 182.76C227.956 183.816 225.488 185.125 224.169 186.741C219.592 192.37 212.039 209.313 212.039 209.313C212.039 209.313 224.586 213.97 227.751 216.705L227.819 217.307L229.786 233.628L223.948 266.115C223.898 266.396 223.872 266.68 223.869 266.966C223.87 268.04 224.232 269.083 224.897 269.927C225.562 270.771 226.491 271.366 227.534 271.617C227.534 271.617 228.035 271.702 228.964 271.828C235.161 272.705 260.328 275.709 280.054 270.345C282.204 269.75 284.079 268.422 285.356 266.59C286.633 264.759 287.231 262.539 287.047 260.313L283.83 219.905C285.549 219.609 287.522 219.298 289.141 219.118C290.086 218.96 291.048 218.938 291.999 219.055C291.999 219.055 289.774 187.507 280.349 183.61Z" fill="#F99746"/>
<path d="M243.135 243.575C242.887 254.916 235.461 268.243 228.98 271.833C228.051 271.706 227.55 271.622 227.55 271.622C226.507 271.37 225.578 270.775 224.913 269.931C224.248 269.088 223.886 268.045 223.885 266.97C223.888 266.685 223.914 266.401 223.964 266.12L229.813 233.612L227.84 217.291C227.935 217.006 227.988 216.858 227.988 216.858C227.988 216.858 243.562 223.537 243.135 243.575Z" fill="#ED7D2B"/>
<path d="M289.141 219.123C287.485 219.308 283.819 219.909 283.819 219.909L281.963 202.987C281.963 202.987 288.17 214.899 289.141 219.123Z" fill="#ED7D2B"/>
<path d="M224.992 260.307L226.511 251.859C252.228 214.603 254.174 207.924 242.608 191.197C239.295 186.408 233.272 183.414 230.815 182.749C233.241 181.877 235.724 181.172 238.246 180.637C240.688 181.782 242.935 182.912 244.675 184.422C279.969 215.025 224.992 260.307 224.992 260.307Z" fill="#35488B"/>
<path d="M240.149 224.973C240.787 224.926 243.561 223.537 243.561 223.537C243.561 223.537 244.954 213.204 255.022 212.513C255.022 212.513 259.241 212.513 258.36 215.401C257.48 218.289 257.406 217.022 256.282 221.098C255.159 225.174 252.237 228.263 249.12 228.453L245.929 229.313C245.929 229.313 238.472 225.1 240.149 224.973Z" fill="#FFB27D"/>
<path d="M243.562 223.538C243.562 223.538 226.685 225.074 224.164 226.177C224.164 226.177 225.535 222.482 227.977 216.853C225.772 214.683 218.531 211.457 213.737 209.989C210.077 219.329 208.674 228.575 210.725 237.487C210.834 237.945 211.088 238.354 211.449 238.654C211.811 238.954 212.26 239.128 212.729 239.15C218.141 239.398 236.083 239.309 249.12 228.342L243.562 223.538Z" fill="#FFB27D"/>
<path d="M265.112 176.196C256.895 175.98 250.619 167.875 250.619 167.875L264.859 168.456C264.527 171.033 264.613 173.646 265.112 176.196Z" fill="#E8945B"/>
<path d="M265.893 171.226C265.893 171.226 247.74 173.444 247.349 160.635C246.959 147.826 254.533 139.515 259.58 139.631C269.654 139.821 271.315 143.897 272.486 148.137C273.657 152.377 274.253 170.323 265.893 171.226Z" fill="#FFB27D"/>
<path d="M261.035 163.847C261.035 163.847 261.431 165.431 265.407 165.151C265.407 165.151 268.746 164.903 268.625 163.144C268.625 163.155 265.37 161.93 261.035 163.847Z" fill="white"/>
<path d="M264.073 139.753C264.073 139.753 248.562 139.753 252.127 150.408C254.374 157.129 246.901 158.17 246.901 158.17L243.304 147.399L245.556 139.009L264.073 139.753Z" fill="#35488B"/>
<path d="M799.955 178.193C782.872 173.837 764.091 147.3 764.091 147.3L768.901 143.123C773.885 149 794.597 159.127 794.597 159.127C794.486 153.746 794.628 148.841 794.966 144.374C797.265 114.014 808.678 103.903 811.843 101.68C812.094 101.487 812.359 101.31 812.634 101.152L812.666 101.786C812.708 102.689 812.792 104.505 812.876 107.003C813.478 125.604 814.237 181.836 799.955 178.193Z" fill="#D9935C"/>
<path d="M768.897 143.122C768.829 142.404 768.343 131.976 766.26 129.991C764.177 128.005 760.105 125.297 758.929 125.519C757.753 125.74 753.766 132.383 755.649 136.95C757.531 141.517 764.087 147.298 764.087 147.298L768.897 143.122Z" fill="#D9935C"/>
<path d="M773.142 144.33L761.892 144.805C761.713 144.813 761.538 144.748 761.405 144.627C761.273 144.505 761.194 144.336 761.186 144.156L760.289 122.672C760.286 122.583 760.3 122.495 760.33 122.411C760.361 122.328 760.408 122.252 760.468 122.186C760.528 122.121 760.601 122.068 760.681 122.031C760.762 121.994 760.849 121.973 760.938 121.97L772.193 121.495C772.281 121.491 772.37 121.505 772.453 121.536C772.536 121.567 772.613 121.613 772.678 121.674C772.743 121.734 772.796 121.807 772.833 121.887C772.87 121.968 772.891 122.055 772.894 122.144L773.791 143.628C773.795 143.717 773.781 143.806 773.751 143.89C773.721 143.973 773.674 144.05 773.613 144.115C773.553 144.181 773.48 144.233 773.399 144.27C773.318 144.307 773.231 144.328 773.142 144.33Z" fill="#F1A34F"/>
<path d="M770.22 144.457L760.015 144.885C759.697 144.898 759.387 144.784 759.152 144.568C758.918 144.352 758.779 144.052 758.765 143.734L757.911 123.295C757.898 122.977 758.012 122.666 758.227 122.432C758.443 122.197 758.742 122.058 759.06 122.044L769.266 121.622C769.423 121.614 769.58 121.637 769.729 121.691C769.877 121.744 770.013 121.827 770.13 121.933C770.246 122.04 770.34 122.168 770.406 122.312C770.472 122.455 770.51 122.61 770.516 122.767L771.37 143.206C771.383 143.524 771.269 143.835 771.054 144.069C770.838 144.304 770.538 144.443 770.22 144.457Z" fill="#D86713"/>
<path d="M758.09 126.316C758.09 126.316 761.159 122.884 764.229 125.508C767.298 128.132 764.023 133.723 761.365 135.249C760.119 135.909 758.941 136.689 757.847 137.578L758.09 126.316Z" fill="#D9935C"/>
<path d="M837.164 354.692C836.109 358.832 834.981 362.776 833.815 366.451C833.562 367.238 833.288 368.035 833.066 368.769L832.692 369.883C832.449 370.612 832.206 371.324 831.964 372.021C831.647 372.93 831.331 373.817 831.02 374.661C830.795 375.299 830.568 375.922 830.339 376.531C826.874 385.834 823.968 391.732 823.968 391.732L817.064 391.257C817.064 391.257 819.659 378.912 820.176 361.229C820.176 360.596 820.213 359.962 820.224 359.318C820.252 357.945 820.266 356.546 820.266 355.12C820.266 354.539 820.266 353.943 820.266 353.346C820.123 338.119 818.241 320.119 812.233 302.938C807.777 290.224 804.107 277.248 801.242 264.082C792.973 225.95 794.913 200.896 794.913 200.896L833.752 205.448L835.561 205.659C835.724 223.516 836.183 247.767 836.616 266.722C836.684 270.017 836.747 273.148 836.811 276.057C837.08 288.201 837.28 296.554 837.28 296.554C844.727 312.664 842.011 335.389 837.164 354.692Z" fill="#CB7D45"/>
<path d="M826.046 67.3959C826.046 67.3959 835.234 75.2313 826.811 84.2441C826.811 84.2441 833.831 84.9358 836.204 82.9875C835.965 83.4831 835.664 83.9461 835.307 84.3655C835.307 84.3655 843.155 84.6454 846.383 82.1955C849.611 79.7456 847.543 39.5443 825.756 44.0376C825.756 44.0376 807.297 42.6437 809.011 64.0326C810.725 85.4215 803.737 85.4215 803.737 85.4215C803.737 85.4215 805.672 86.3772 806.611 86.3772C806.611 86.3772 807.977 85.8492 808.246 85.0994C808.134 85.6592 807.925 86.1952 807.629 86.6834C807.629 86.6834 815.155 87.3962 818.91 84.5715C822.665 81.7467 827.117 71.8099 826.046 67.3959Z" fill="#233862"/>
<path d="M855.697 196.546C848.356 180.067 844.849 175.426 844.722 170.22C844.627 166.117 846.647 161.692 850.571 150.847C851.482 148.304 852.135 145.675 852.522 143.001C855.629 122.087 843.556 99.4781 836.036 97.9364C833.926 97.4084 830.408 89.8315 830.45 77.6611L829.512 77.8459L813.689 80.977C813.689 80.977 814.048 85.9613 814.058 90.6499C814.058 94.5624 813.858 98.5436 812.972 99.0082C811.833 99.1138 810.799 99.3197 810.799 99.3197C810.799 99.3197 797.419 108.729 796.559 121.496C795.409 138.54 807.408 158.746 796.765 192.813C785.9 227.571 859.753 205.654 855.697 196.546Z" fill="#D9935C"/>
<path d="M813.7 80.9757C813.7 80.9757 814.059 85.96 814.069 90.6485C822.919 90.4004 827.592 82.3221 829.512 77.8447L813.7 80.9757Z" fill="#CB7D45"/>
<path d="M831.141 76.1168C831.141 76.1168 835.777 68.783 836.89 62.5105C837.687 58.0331 835.408 41.4383 818.747 43.8301C815.393 44.2953 812.187 45.5097 809.365 47.3835C805.747 49.8281 800.525 55.108 806.364 69.5908L807.877 74.48L831.141 76.1168Z" fill="#233862"/>
<path d="M810.746 85.4212C810.746 85.4212 831.679 85.7644 831.69 72.7125C831.7 59.6605 834.417 50.9117 821.052 50.1409C807.688 49.37 805.087 54.3648 804.022 58.6996C802.957 63.0344 805.298 85.0094 810.746 85.4212Z" fill="#D9935C"/>
<path d="M811.517 49.8202C811.517 49.8202 817.25 65.1319 826.047 67.397C834.844 69.6621 838.657 67.302 838.657 67.302C834.317 63.4857 831.437 58.2785 830.509 52.571C830.509 52.571 815.841 42.5339 811.517 49.8202Z" fill="#233862"/>
<path d="M812.94 51.0639C812.94 51.0639 808.658 54.48 807.613 57.8064C806.569 61.1327 806.105 67.9702 804.111 67.7379C804.111 67.7379 799.792 57.3312 804.639 51.4388C809.792 45.1979 812.94 51.0639 812.94 51.0639Z" fill="#233862"/>
<path d="M812.144 51.5768C812.144 51.5768 816.226 67.6172 827.328 72.7545C827.328 72.7545 816.226 62.9022 815.287 52.3107C814.349 41.7192 812.144 51.5768 812.144 51.5768Z" fill="#233862"/>
<path d="M813.489 141.761C812.603 163.409 809.37 184.861 799.951 183.473C788.406 181.783 785.4 170.996 784.783 162.976C784.551 160.008 784.608 157.025 784.951 154.068C784.951 154.068 790.637 154.042 791.554 153.192C795.921 149.158 794.624 109.579 796.781 105.471C798.938 101.363 812.957 98.7393 812.957 98.7393C812.957 98.7393 814.37 120.356 813.489 141.761Z" fill="#EE9849"/>
<path d="M813.489 141.76C812.603 163.407 809.37 184.86 799.95 183.471C788.406 181.781 785.399 170.995 784.782 162.974C787.62 162.832 792.609 162.14 794.592 159.115C797.429 154.78 806.285 126.881 806.285 126.881C806.285 126.881 809.771 133.153 813.489 141.76Z" fill="#E58638"/>
<path d="M837.164 354.693C836.11 358.832 834.981 362.776 833.815 366.451C833.562 367.238 833.288 368.035 833.066 368.769L832.692 369.883C832.449 370.612 832.207 371.325 831.964 372.022C831.648 372.93 831.331 373.817 831.02 374.662C830.795 375.299 830.568 375.922 830.34 376.531C826.875 385.834 823.969 391.732 823.969 391.732L817.065 391.257C817.065 391.257 819.66 378.912 820.177 361.229C820.177 360.596 820.214 359.962 820.224 359.318C820.252 357.945 820.266 356.546 820.266 355.12C820.266 354.54 820.266 353.943 820.266 353.346C820.124 338.119 818.241 320.119 812.234 302.938C807.778 290.224 804.107 277.248 801.243 264.083C805.346 264.927 808.959 264.083 819.449 263.18C820.551 263.09 825.82 269.621 831.052 278.27C831.321 290.44 837.286 296.555 837.286 296.555C844.727 312.664 842.011 335.389 837.164 354.693Z" fill="#233862"/>
<path d="M801.238 171.175C801.238 171.175 824.401 176.983 844.722 170.22C844.722 170.22 855.882 193.938 858.962 204.102C862.042 214.266 867 235.254 867 235.254C867 235.254 825.741 248.01 791.823 235.254C791.823 235.254 790.278 207.301 794.724 192.728C799.17 178.156 801.238 171.175 801.238 171.175Z" fill="#233862"/>
<path d="M849.347 156.38C849.347 156.38 845.075 166.586 844.944 167.536C844.88 167.964 844.828 168.555 844.791 169.073C842.684 170.764 840.272 172.033 837.687 172.811C830.456 175.008 827.318 161.137 827.745 154.215C828.172 147.293 838.404 127.541 841.806 127.129C845.207 126.717 849.347 156.38 849.347 156.38Z" fill="#E58638"/>
<path d="M849.791 158.525L849.348 156.381C849.568 157.078 849.717 157.797 849.791 158.525Z" fill="#E58638"/>
<path d="M819.944 175.599C806.759 175.599 801.516 171.903 801.116 171.581L800.261 165.361C800.388 165.456 818.093 176.095 845.492 165.889L844.912 170.599C834.358 174.538 826.8 175.599 819.944 175.599Z" fill="#B64C41"/>
<path d="M836.468 97.5458C836.468 97.5458 825.43 104.542 817.076 102.889C817.076 102.889 815.071 101.622 817.84 100.344C820.435 99.1509 826.474 95.6186 825.15 92.1286C827.601 91.3383 829.926 90.2003 832.054 88.7495C832.204 88.6488 832.377 88.5883 832.557 88.5738C832.736 88.5592 832.917 88.591 833.081 88.6662C833.245 88.7415 833.387 88.8575 833.493 89.0034C833.6 89.1492 833.667 89.3199 833.689 89.4992C834.053 92.3451 834.912 97.5458 836.468 97.5458Z" fill="#E58638"/>
<path d="M827.946 397.54H823.536C822.06 397.302 820.973 396.88 819.46 396.679C817.16 396.378 816.1 397.318 815.889 397.54L815.847 397.582H797.129C796.654 396.906 797.129 395.349 797.551 394.203C797.702 393.821 797.939 393.48 798.244 393.205C798.549 392.93 798.913 392.73 799.307 392.619C801.29 392.043 805.204 391.531 808.801 388.284C810.815 386.457 818.537 381.573 818.537 381.573H818.579C818.748 381.573 819.554 381.821 823.067 384.789C824.881 386.32 827.977 382.629 827.977 382.629C828.402 383.018 828.746 383.486 828.99 384.007C829.426 384.897 829.567 385.904 829.391 386.88C829.111 388.569 830.013 391.711 830.73 393.833C831.168 395.116 831.537 396.03 831.537 396.03C831.537 396.03 831.722 397.059 827.946 397.54Z" fill="#233862"/>
<path d="M828.979 383.981C827.924 384.72 825.704 386.182 824.232 386.372C822.244 386.636 818.526 381.552 818.526 381.552H818.568C818.737 381.552 819.544 381.8 823.056 384.767C824.871 386.298 827.966 382.608 827.966 382.608C828.39 382.995 828.734 383.461 828.979 383.981Z" fill="#466AA5"/>
<path d="M827.946 397.54H823.536C822.06 397.302 820.973 396.88 819.46 396.679C817.16 396.378 816.1 397.318 815.889 397.54L815.847 397.582H797.129C796.654 396.906 797.129 395.349 797.551 394.203C798.121 393.675 798.279 396.399 798.606 396.843C798.933 397.286 813.901 396.996 814.739 396.368C815.578 395.739 818.194 394.641 821.806 395.502C824.971 396.257 829.586 394.33 830.73 393.817C831.168 395.1 831.537 396.014 831.537 396.014C831.537 396.014 831.722 397.059 827.946 397.54Z" fill="#466AA5"/>
<path d="M643.965 65.0047C643.965 65.0047 628.991 64.2549 628.57 55.601C628.148 46.9471 615.806 40.6586 619.387 33.6995C623.781 25.1829 619.772 16.9936 625.315 11.2701C631.428 4.96045 639.149 8.38717 643.221 4.70701C647.292 1.02684 654.745 -2.35764 662.086 2.18316C669.428 6.72397 675.039 4.29517 679.865 8.65645C685.202 13.4877 683.177 19.5702 687.576 22.8755C691.61 25.901 689.965 34.1747 686.568 40.8962C684.121 45.7432 689.765 50.284 680.076 55.8491C676.047 58.1671 676.912 64.0015 664.681 65.0047C659.164 65.4746 647.203 62.8716 643.965 65.0047Z" fill="#2C3A64"/>
<path d="M615.416 398.04C615.416 398.04 615.416 391.969 616.281 389.952C617.146 387.935 620.31 379.714 620.31 379.714H632.699C632.699 379.714 634.999 387.211 635.146 389.661C635.294 392.111 635.146 398.04 635.146 398.04H615.416Z" fill="#233862"/>
<path d="M694.069 398.04C694.069 398.04 694.069 391.969 693.204 389.952C692.339 387.935 689.174 379.714 689.174 379.714H676.77C676.77 379.714 674.465 387.211 674.323 389.661C674.18 392.111 674.323 398.04 674.323 398.04H694.069Z" fill="#233862"/>
<path d="M644.433 57.3327C644.433 57.3327 643.995 70.8493 642.271 76.9053L628.59 86.4567L680.075 94.1707L667.797 77.1852C667.797 77.1852 664.105 59.0645 666.036 52.3696C667.966 45.6747 644.433 57.3327 644.433 57.3327Z" fill="#B56F40"/>
<path d="M644.36 59.2021C644.36 59.2021 648.431 69.0122 656.1 68.7957C663.768 68.5793 665.514 59.8991 665.514 59.8991L644.36 59.2021Z" fill="#99592E"/>
<path d="M655.219 65.0037C649.666 64.9034 639.434 57.4956 639.434 48.3244V34.0106C639.434 30.6631 641.77 27.9229 644.618 27.9229H665.82C668.674 27.9229 671.005 30.6631 671.005 34.0106V47.5219C671.005 57.1313 661.596 65.1146 655.219 65.0037Z" fill="#B56F40"/>
<path d="M616.967 187.817C616.967 187.817 619.134 254.066 615.912 291.86C612.689 329.654 615.912 382.264 615.912 382.264C615.912 382.264 626.275 387.982 637.535 382.264C637.535 382.264 649.856 309.242 649.777 291.86C649.692 273.38 663.183 190.706 663.183 190.706L616.967 187.817Z" fill="#EE9849"/>
<path d="M693.604 382.275C693.604 382.275 683.246 387.999 672.012 382.275C672.012 382.275 659.692 309.258 659.771 291.876C659.808 284.062 657.419 264.8 654.65 245.164C650.863 218.299 646.359 190.727 646.359 190.727L694.353 187.723C694.353 187.723 690.397 254.082 693.636 291.876C696.874 329.67 693.604 382.275 693.604 382.275Z" fill="#EE9849"/>
<path d="M685.303 80.3901V80.4218C679.545 78.9615 673.697 77.8803 667.798 77.1851C663.02 83.5211 659.592 85.0154 655.219 86.7472C648.194 85.7704 642.272 77.1059 642.272 76.9053C637.216 77.368 632.217 78.3211 627.346 79.7512C626.929 79.7987 604.467 82.7714 572.675 147.557C572.675 147.557 574.389 153.523 582.722 163.925C588.655 171.317 597.948 180.969 612.362 192.305C613.435 189.839 614.305 187.289 614.962 184.681C614.962 184.681 606.397 167.991 601.25 156.697C598.745 151.195 597.03 146.971 597.526 146.564C598.454 145.794 608.823 136.786 616.476 130.128C616.413 131.791 616.397 133.296 616.434 134.621C616.85 149.094 617.431 163.159 615.569 178.735C613.122 199.206 617.267 198.847 617.267 198.847C617.267 198.847 622.852 199.94 630.637 200.959C637.678 201.899 646.522 202.796 654.66 202.796C673.325 202.796 693.783 198.831 693.783 198.831C699.675 198.905 692.133 162.146 691.03 140.033C690.777 134.896 690.54 130.207 690.318 125.925C697.354 132.039 712.934 145.593 714.083 146.549C714.568 146.955 712.87 151.179 710.36 156.681C705.202 167.98 696.647 184.665 696.647 184.665C697.305 187.273 698.175 189.823 699.247 192.289C713.661 180.953 722.981 171.306 728.888 163.909C737.226 153.508 738.908 147.541 738.908 147.541C706.821 82.1589 685.303 80.3901 685.303 80.3901Z" fill="#B64C41"/>
<path d="M630.626 200.97C622.842 199.914 617.256 198.858 617.256 198.858C617.256 198.858 613.111 199.217 615.558 178.746C617.42 163.17 616.84 149.104 616.423 134.632C616.376 133.048 616.423 131.115 616.513 128.998C617.705 130.909 630.995 152.399 634.571 168.366C637.177 179.998 633.247 193.72 630.626 200.97Z" fill="#AA413E"/>
<path d="M659.787 291.86C659.824 284.046 657.434 264.784 654.666 245.148C657.54 233.416 664.539 222.127 664.539 222.127C673.383 246.996 659.787 291.86 659.787 291.86Z" fill="#E58638"/>
<path d="M613.254 185.505C613.254 185.505 621.033 178.298 624.198 182.337C627.362 186.376 627.942 192.717 625.495 192.284C623.048 191.851 618.006 189.544 617.288 190.7C616.571 191.857 613.343 194.058 612.362 192.284C611.381 190.51 613.254 185.505 613.254 185.505Z" fill="#B56F40"/>
<path d="M614.957 184.686C614.299 187.292 613.429 189.84 612.357 192.304C597.943 180.968 588.65 171.322 582.717 163.925C587.189 163.592 593.719 161.992 601.234 156.691C606.397 167.99 614.957 184.686 614.957 184.686Z" fill="#B56F40"/>
<path d="M698.335 185.505C698.335 185.505 690.556 178.298 687.386 182.337C684.217 186.376 683.642 192.717 686.094 192.284C688.547 191.851 693.583 189.544 694.301 190.7C695.018 191.857 698.246 194.058 699.227 192.284C700.208 190.51 698.335 185.505 698.335 185.505Z" fill="#B56F40"/>
<path d="M696.621 184.686C697.282 187.292 698.153 189.84 699.226 192.304C713.635 180.968 722.959 171.322 728.861 163.925C724.389 163.592 717.865 161.992 710.349 156.691C705.191 167.99 696.621 184.686 696.621 184.686Z" fill="#B56F40"/>
<path d="M714.073 146.56C712.918 145.599 697.232 131.956 690.229 125.868C690.229 125.868 697.217 120.625 701.536 128.27C705.856 135.916 714.073 146.56 714.073 146.56Z" fill="#AA413E"/>
<path d="M738.898 147.558C738.898 147.558 737.189 153.524 728.877 163.925C719.215 163.793 738.898 147.558 738.898 147.558Z" fill="#AA413E"/>
<path d="M639.434 39.8133C639.434 39.8133 643.295 28.0285 655.931 29.8659C668.568 31.7033 669.644 34.4067 671.005 37.5429C672.365 40.6792 674.939 26.0802 674.939 26.0802L660.035 21.6504C660.035 21.6504 641.997 23.7043 640.7 26.7297L639.402 29.7603L639.434 39.8133Z" fill="#2C3A64"/>
<path d="M647.487 48.6106C645.309 48.6106 640.942 48.1249 640.177 44.3286C640.049 43.8214 640.039 43.2915 640.148 42.7797C640.257 42.268 640.482 41.7881 640.805 41.3771C641.2 40.9312 641.688 40.5779 642.235 40.3425C642.782 40.107 643.374 39.9952 643.969 40.0149H650.678C651.954 40.0149 652.846 40.3845 653.315 41.1079C654.127 42.3275 653.505 44.1544 653.199 44.883C652.144 47.3804 650.72 48.5473 648.674 48.5789C648.279 48.6103 647.883 48.6209 647.487 48.6106ZM643.996 40.4584C643.462 40.435 642.93 40.5303 642.437 40.7376C641.945 40.9448 641.505 41.2588 641.148 41.657C640.868 42.018 640.675 42.4386 640.583 42.8863C640.492 43.334 640.505 43.7968 640.62 44.2388C641.016 46.1871 642.477 47.4068 644.966 47.9348C646.183 48.1637 647.425 48.2223 648.658 48.109C650.504 48.109 651.823 47.0266 652.788 44.7088C653.004 44.1808 653.653 42.4173 652.941 41.3455C652.55 40.7541 651.78 40.4531 650.662 40.4531L643.996 40.4584Z" fill="#2C3A64"/>
<path d="M662.951 48.6096C662.542 48.6122 662.134 48.5928 661.728 48.5516C659.686 48.5516 658.252 47.3794 657.208 44.8556C656.902 44.127 656.279 42.3001 657.092 41.0805C657.572 40.3571 658.463 39.9875 659.729 39.9875H666.432C667.032 39.9638 667.63 40.0737 668.183 40.3093C668.736 40.5448 669.229 40.9002 669.628 41.3498C669.95 41.7618 670.173 42.2419 670.281 42.7534C670.388 43.2649 670.378 43.7943 670.25 44.3012C669.501 48.1239 665.14 48.6096 662.951 48.6096ZM659.739 40.4574C658.616 40.4574 657.851 40.7584 657.455 41.3498C656.743 42.4057 657.397 44.1956 657.614 44.7131C658.584 47.0309 659.892 48.1133 661.738 48.1133C662.981 48.2291 664.235 48.1705 665.462 47.9391C667.951 47.4111 669.412 46.1862 669.802 44.2431C669.917 43.8002 669.929 43.3368 669.838 42.8885C669.746 42.4401 669.554 42.0185 669.275 41.656C668.917 41.258 668.475 40.9442 667.982 40.737C667.489 40.5298 666.956 40.4343 666.421 40.4574H659.739Z" fill="#2C3A64"/>
<path d="M652.819 43.1179C652.75 43.1326 652.677 43.1189 652.617 43.0798C652.557 43.0407 652.515 42.9794 652.5 42.9094C652.486 42.8394 652.499 42.7664 652.538 42.7065C652.578 42.6466 652.639 42.6046 652.709 42.5899C652.819 42.5371 655.451 41.3597 657.782 42.5899C657.844 42.6235 657.89 42.6799 657.911 42.7469C657.931 42.814 657.925 42.8865 657.893 42.949C657.859 43.0096 657.802 43.0549 657.736 43.0755C657.669 43.096 657.597 43.0905 657.534 43.0598C655.425 41.9405 652.957 43.0598 652.93 43.0598C652.898 43.0875 652.86 43.1074 652.819 43.1179Z" fill="#2C3A64"/>
<path d="M610.21 195.833L604.092 196.947C604.092 196.947 587.3 171.075 586.82 163.155C586.351 155.61 571.219 122.578 588.93 101.954C589.748 100.999 590.619 100.091 591.54 99.2351L591.64 99.1348L591.73 99.2826C592.089 99.8845 593.497 102.451 595.148 108.058C597.727 116.854 600.949 133.191 601.677 161.386C601.682 161.391 605.801 185.542 610.21 195.833Z" fill="#F4A671"/>
<path d="M610.211 195.833C610.211 195.833 616.788 203.262 616.988 206.271C617.188 209.281 614.588 213.077 611.666 213.721C608.745 214.365 610.569 209.724 610.132 207.861C609.694 205.997 607.779 203.167 607.895 204.006C608.012 204.846 609.177 208.172 608.818 208.7C608.46 209.228 607.516 209.318 607.157 207.544C606.798 205.77 603.856 203.705 604.43 201.804C605.005 199.904 604.536 198.436 603.74 195.886C602.943 193.335 601.63 190.273 601.63 190.273L606.377 189.265L610.211 195.833Z" fill="#F4A671"/>
<path d="M565.84 61.6719C565.84 61.6719 565.692 64.8029 567.57 65.4153C569.448 66.0278 565.634 72.8072 565.935 77.3638C566.236 81.9203 568.256 83.7683 568.256 83.7683C568.256 83.7683 567.285 81.2551 567.828 79.7028C567.828 79.7028 567.739 82.9341 570.096 84.5656C572.454 86.1971 571.821 87.6068 571.821 87.6068C571.821 87.6068 577.153 86.0228 577.301 82.0048C577.418 82.8535 577.434 83.7131 577.348 84.5656C577.348 84.5656 581.947 81.1072 582.169 77.1209C582.39 73.1346 578.545 69.7713 576.794 69.729C575.043 69.6868 571.141 66.2284 571.246 64.9296C571.352 63.6307 565.84 61.6719 565.84 61.6719Z" fill="#2C3A64"/>
<path d="M580.565 39.2745C577.464 34.5596 565.154 37.1942 553.066 45.1616C540.978 53.129 533.699 63.4143 536.801 68.124C539.902 72.8337 552.196 70.2254 564.326 62.2316C576.456 54.2378 583.666 43.9842 580.565 39.2745Z" fill="#E2AF64"/>
<path d="M607.146 387.084L600.627 389.513C600.627 389.513 572.321 350.209 568.835 315.63C568.213 309.453 568.424 303.486 569.769 297.947C569.769 297.947 569.489 296.363 569.009 293.57C568.783 292.266 568.482 290.693 568.192 288.892C567.274 283.612 566.008 276.389 564.558 268.168C561.23 249.239 556.911 225.046 553.562 207.258L555.318 206.693L574.304 200.558L578.234 188.07L592.384 184.343C592.384 184.343 595.548 190.531 598.365 219.772C598.892 223.605 599.362 227.834 599.72 232.444C601.023 249.517 600.572 266.679 598.375 283.66C597.721 288.744 596.904 293.987 595.886 299.378C595.142 303.333 595.032 308.719 595.359 314.901C596.783 343.15 607.146 387.084 607.146 387.084Z" fill="#2B478B"/>
<path d="M599.731 232.423L569.009 293.571C568.783 292.267 568.482 290.693 568.192 288.893C567.274 283.613 566.008 276.39 564.558 268.169C561.23 249.24 556.911 225.047 553.562 207.258L555.318 206.693L574.304 200.558L578.234 188.071L595.111 183.039C595.111 183.039 595.522 190.531 598.344 219.772C598.897 223.605 599.372 227.835 599.731 232.423Z" fill="#233862"/>
<path d="M573.762 39.8076L552.038 72.807C552.038 72.807 549.554 67.9337 546.795 69.6813C542.492 72.4058 533.246 63.0867 535.192 49.9292C535.319 49.0685 535.472 48.2501 535.641 47.474C539.976 41.2226 544.786 34.2742 548.24 29.3692C558.198 23.3342 573.762 39.8076 573.762 39.8076Z" fill="#2C3A64"/>
<path d="M583.313 106.468C579.768 109.631 575.65 112.085 571.182 113.696C551.995 120.972 542.133 105.248 537.718 94.1288C539.632 92.7008 541.821 91.6868 544.147 91.1509C545.556 90.7866 547.048 90.4698 548.282 90.2428C550.276 88.2311 552.644 80.8023 551.906 69.8623L552.871 69.989L569.062 72.1379C569.062 72.1379 569.02 77.2014 569.305 81.948C569.537 85.644 569.969 89.1762 570.781 89.9418C572.037 90.0369 572.791 90.1108 572.791 90.1108C576.811 95.2148 580.335 100.692 583.313 106.468Z" fill="#FFB27D"/>
<path d="M569.073 72.1415C569.073 72.1415 569.031 77.1997 569.321 81.9463C560.355 82.2631 555.081 74.396 552.881 69.9873L569.073 72.1415Z" fill="#ED985F"/>
<path d="M572.358 76.4467C572.358 76.4467 551.209 78.1469 550.355 64.9418C549.5 51.7367 546.194 43.0671 559.664 41.4251C573.134 39.783 576.082 44.6511 577.437 48.9859C578.793 53.3207 577.838 75.6653 572.358 76.4467Z" fill="#FFB27D"/>
<path d="M576.341 41.7136C572.817 37.949 570.397 38.9786 569.089 40.2616C557.111 34.628 550.255 44.5225 550.255 44.5225C549.682 50.3542 547.104 55.8057 542.961 59.9452C542.961 59.9452 546.969 62.0571 555.724 59.2271C558.393 58.3559 560.698 56.2703 562.612 53.7941C560.506 57.7786 557.868 61.4573 554.77 64.7288C565.086 59.1321 568.414 44.0632 568.735 42.4739C570.101 43.5299 572.812 45.9164 573.746 48.3399C575.017 51.6346 575.929 58.5249 577.928 58.1606C577.928 58.1342 581.625 47.3262 576.341 41.7136Z" fill="#2C3A64"/>
<path d="M627.541 398.041H594.72C594.72 398.041 593.492 392.798 595.643 389.229C597.553 386.061 596.825 384.276 595.411 381.668C597.152 382.427 599.041 382.787 600.939 382.724C602.673 382.528 604.341 381.942 605.817 381.008C607.231 382.592 613.28 389.456 615.173 390.844C617.315 392.37 626.882 391.821 627.541 398.041Z" fill="#233862"/>
<path d="M534.722 56.4231C534.722 56.4231 524.886 36.824 538.63 29.0784C552.375 21.3328 562.432 24.374 569.995 33.8303L534.722 56.4231Z" fill="#EDBD77"/>
<path d="M597.315 109.917C594.678 96.7166 586.53 92.9573 586.53 92.9573C586.53 92.9573 585.169 90.9033 577.595 90.5812C576.414 90.5284 575.127 90.2856 573.693 90.1694L572.812 90.1113C573.102 90.5548 580.723 102.313 580.317 105.476C579.911 108.639 552.064 107.588 550.049 105.967C548.43 104.658 545.624 95.9352 544.58 92.5084C544.311 91.6584 544.158 91.1357 544.158 91.1357C544.158 91.1357 534.443 92.8305 529.875 96.6216C532.153 99.2254 534.101 102.1 535.677 105.18C535.898 105.629 536.109 106.083 536.305 106.537C536.721 107.493 537.063 108.48 537.328 109.489C537.66 110.804 537.359 112.155 536.647 113.613C535.86 115.129 534.936 116.571 533.889 117.921C533.14 118.93 532.307 119.996 531.516 121.137C532.091 123.059 532.845 125.361 533.678 127.964C535.765 134.234 537.51 140.612 538.905 147.072C539.448 149.746 539.385 152.509 538.72 155.156C538.457 156.21 538.104 157.24 537.665 158.234C536.974 159.818 536.8 161.93 536.025 163.947C532.861 172.189 529.169 182.955 532.861 188.562C535.313 195.743 592.12 178.303 588.296 170.774C588.296 170.774 590.564 131.274 592.125 119.03C592.178 118.581 592.215 118.148 592.241 117.715C592.278 117.038 592.278 116.359 592.241 115.682C597.183 113.465 597.315 109.917 597.315 109.917Z" fill="#F99746"/>
<path d="M590.09 31.6823C587.263 27.1416 577.363 27.8702 565.418 32.77C560.337 34.8824 555.441 37.4168 550.782 40.3467C545.076 43.8627 539.76 47.9759 534.923 52.6172C527.012 60.3575 523.157 67.7758 525.72 71.8836C528.562 76.4454 538.552 75.6798 550.587 70.7167C549.611 69.6607 548.24 68.7526 546.795 69.6607C545.35 70.5689 543.246 70.1095 541.252 68.5255C539.78 68.2827 538.689 67.6913 538.087 66.7357C537.636 65.9597 537.475 65.0482 537.634 64.1643C538.251 59.5814 544.733 52.4693 554.047 46.6509C561.204 42.1841 568.318 39.5547 573.213 39.259C576.061 39.0742 578.165 39.6761 579.083 41.1545C579.879 42.4322 579.705 44.2115 578.724 46.2654C579.2 48.3728 579.309 50.5466 579.046 52.6911C588.186 44.3541 592.848 36.1122 590.09 31.6823Z" fill="#FFCF83"/>
<path d="M558.119 159.458C550.821 161.743 543.28 163.161 535.651 163.682C536.427 161.671 537.007 159.849 537.698 158.291C538.137 157.298 538.49 156.268 538.753 155.213C539.417 152.566 539.481 149.804 538.937 147.13C537.476 140.002 533.6 127.842 531.88 122.483C536.469 112.235 541.21 117.826 541.21 117.826C541.21 117.826 555.086 124.056 560.993 135.535C566.9 147.014 565.181 157.167 558.119 159.458Z" fill="#ED7D2B"/>
<path d="M540.413 91.9381C540.413 91.9381 553.598 100.386 557 118.206L560.998 116.938C560.998 116.938 559.447 104.219 544.168 91.1514L540.413 91.9381Z" fill="#2B478B"/>
<path d="M587.073 118.661L582.885 118.935C583.443 108.545 580.172 98.3116 573.692 90.1758C575.127 90.2867 576.424 90.4292 577.595 90.5823C588.549 106.454 587.073 118.661 587.073 118.661Z" fill="#2B478B"/>
<path d="M592.279 185.626L595.248 184.343L592.331 140.07C592.331 140.07 589.499 119.943 589.457 116.421C589.43 115.382 589.154 114.364 588.653 113.454C588.152 112.543 587.44 111.767 586.577 111.188C586.577 111.188 565.75 112.287 559.88 112.619C554.01 112.952 554.606 116.315 554.606 116.315C554.606 116.315 557.164 127.013 557.422 128.111C561.373 144.922 538.779 155.192 538.779 155.192C538.779 155.192 535.113 164.696 532.265 173.788C527.392 189.385 531.738 211.757 531.738 211.757C532.481 223.642 533.847 274.145 535.24 289.093C535.767 294.51 536.2 298.365 536.384 299.901C536.418 300.369 536.296 300.836 536.036 301.226C533.987 304.724 532.245 308.394 530.83 312.193C516.975 349.153 532.94 394.651 532.94 394.651L537.091 392.977C537.091 392.977 546.189 342.331 553.578 319.96C554.833 316.164 556.035 313.18 557.138 311.401C560.349 306.205 563.335 297.726 566.04 287.641C571.156 268.564 575.275 243.748 578.018 224.592C578.392 224.592 582.332 197.738 592.21 185.895C592.298 185.779 592.321 185.689 592.279 185.626Z" fill="#2B478B"/>
<path d="M556.836 116.654C556.731 116.322 556.725 115.967 556.821 115.633C556.917 115.298 557.11 115 557.376 114.776C557.641 114.551 557.967 114.41 558.312 114.371C558.658 114.332 559.007 114.397 559.315 114.557C559.624 114.716 559.879 114.964 560.047 115.269C560.215 115.573 560.289 115.921 560.259 116.267C560.23 116.614 560.098 116.944 559.881 117.216C559.665 117.488 559.372 117.689 559.041 117.794C558.597 117.935 558.116 117.894 557.703 117.681C557.29 117.467 556.978 117.097 556.836 116.654Z" fill="#ED7D2B"/>
<path d="M557.138 116.559C557.031 116.227 557.026 115.871 557.122 115.537C557.218 115.202 557.411 114.904 557.676 114.679C557.942 114.454 558.268 114.313 558.614 114.275C558.96 114.236 559.309 114.301 559.618 114.461C559.927 114.621 560.181 114.869 560.349 115.174C560.516 115.479 560.59 115.827 560.56 116.174C560.53 116.521 560.397 116.851 560.18 117.122C559.962 117.394 559.669 117.595 559.337 117.699C558.894 117.839 558.414 117.797 558.002 117.583C557.59 117.369 557.279 117.001 557.138 116.559Z" fill="#F99746"/>
<path d="M557.723 116.026C557.723 115.956 557.751 115.889 557.8 115.839C557.85 115.79 557.917 115.762 557.987 115.762C558.057 115.762 558.124 115.79 558.174 115.839C558.223 115.889 558.251 115.956 558.251 116.026C558.252 116.059 558.246 116.092 558.233 116.124C558.221 116.155 558.202 116.183 558.178 116.207C558.155 116.23 558.127 116.249 558.096 116.261C558.064 116.274 558.031 116.28 557.998 116.279C557.963 116.282 557.927 116.278 557.894 116.266C557.861 116.255 557.83 116.237 557.805 116.213C557.779 116.189 557.758 116.16 557.744 116.128C557.73 116.096 557.723 116.061 557.723 116.026Z" fill="#2B478B"/>
<path d="M559.384 116.025C559.384 115.974 559.399 115.924 559.427 115.882C559.456 115.839 559.496 115.806 559.544 115.786C559.591 115.767 559.643 115.762 559.693 115.772C559.743 115.782 559.789 115.806 559.825 115.842C559.862 115.879 559.886 115.925 559.896 115.975C559.906 116.025 559.901 116.077 559.882 116.124C559.862 116.172 559.829 116.212 559.786 116.24C559.744 116.269 559.694 116.284 559.642 116.284C559.574 116.284 559.508 116.257 559.46 116.208C559.411 116.16 559.384 116.094 559.384 116.025Z" fill="#2B478B"/>
<path d="M582.659 114.421C582.554 114.089 582.549 113.734 582.646 113.4C582.743 113.066 582.937 112.768 583.203 112.544C583.468 112.321 583.795 112.181 584.14 112.143C584.485 112.104 584.834 112.169 585.142 112.33C585.45 112.49 585.704 112.738 585.872 113.043C586.039 113.347 586.113 113.695 586.083 114.041C586.053 114.388 585.921 114.717 585.704 114.989C585.487 115.26 585.194 115.461 584.863 115.566C584.643 115.637 584.411 115.664 584.181 115.645C583.951 115.626 583.727 115.561 583.522 115.454C583.317 115.348 583.135 115.202 582.987 115.024C582.838 114.847 582.727 114.641 582.659 114.421Z" fill="#ED7D2B"/>
<path d="M582.959 114.325C582.853 113.994 582.847 113.638 582.943 113.303C583.039 112.969 583.232 112.67 583.498 112.445C583.763 112.221 584.09 112.08 584.435 112.041C584.781 112.002 585.13 112.067 585.439 112.227C585.748 112.387 586.002 112.636 586.17 112.941C586.338 113.246 586.411 113.594 586.381 113.941C586.351 114.287 586.219 114.618 586.001 114.889C585.783 115.161 585.49 115.361 585.158 115.466C584.939 115.536 584.708 115.563 584.479 115.543C584.249 115.524 584.026 115.46 583.821 115.354C583.617 115.248 583.436 115.102 583.288 114.926C583.14 114.749 583.028 114.545 582.959 114.325Z" fill="#F99746"/>
<path d="M583.544 113.792C583.546 113.742 583.561 113.694 583.59 113.653C583.618 113.612 583.658 113.58 583.705 113.562C583.751 113.543 583.802 113.539 583.851 113.549C583.899 113.56 583.944 113.584 583.979 113.62C584.014 113.656 584.037 113.701 584.047 113.75C584.056 113.799 584.051 113.85 584.032 113.896C584.012 113.942 583.98 113.981 583.938 114.008C583.897 114.036 583.848 114.051 583.798 114.051C583.764 114.051 583.731 114.044 583.7 114.031C583.669 114.018 583.64 113.999 583.617 113.975C583.593 113.951 583.575 113.922 583.562 113.891C583.55 113.859 583.544 113.826 583.544 113.792Z" fill="#2B478B"/>
<path d="M585.206 113.797C585.206 113.727 585.234 113.66 585.283 113.611C585.333 113.561 585.4 113.533 585.47 113.533C585.54 113.533 585.607 113.561 585.657 113.611C585.706 113.66 585.734 113.727 585.734 113.797C585.734 113.864 585.707 113.929 585.66 113.976C585.612 114.024 585.548 114.051 585.481 114.051C585.446 114.053 585.411 114.048 585.378 114.036C585.345 114.024 585.315 114.006 585.289 113.983C585.264 113.959 585.243 113.93 585.229 113.898C585.214 113.867 585.207 113.832 585.206 113.797Z" fill="#2B478B"/>
<path d="M537.639 64.1865C537.639 64.1865 537.497 67.3228 539.374 67.9353C541.252 68.5477 537.439 75.3271 537.739 79.8837C538.04 84.4403 540.055 86.2882 540.055 86.2882C540.055 86.2882 539.09 83.7697 539.627 82.2174C539.627 82.2174 539.543 85.4487 541.901 87.0802C544.258 88.7117 543.625 90.1215 543.625 90.1215C543.625 90.1215 548.952 88.5375 549.105 84.5248C549.222 85.3717 549.237 86.2298 549.147 87.0802C549.147 87.0802 553.751 83.6219 553.968 79.6356C554.184 75.6492 550.344 72.2859 548.593 72.2437C546.842 72.2014 542.945 68.7431 543.045 67.4442C543.145 66.1454 537.639 64.1865 537.639 64.1865Z" fill="#2C3A64"/>
<path d="M537.666 169.194C537.666 169.194 543.995 173.197 544.923 173.16C547.096 173.08 551.384 168.328 554.944 170.52C558.504 172.711 562.011 176.375 560.777 177.838C559.543 179.3 555.345 177.574 553.335 177.869C551.326 178.165 546.368 180.631 542.871 179.453C539.506 178.334 532.239 173.746 532.239 173.746L537.666 169.194Z" fill="#FFB27D"/>
<path d="M529.886 96.6269C529.886 96.6269 506.311 124.495 498.521 140.192C498.521 140.192 507.899 160.631 538.293 177.231C539.529 176.856 540.686 176.256 541.706 175.463C544.923 173.161 541.358 171.476 540.651 171.022C532.94 166.022 519.465 144.48 519.075 142.61C518.684 140.741 535.952 123.983 541.226 117.794C546.5 111.606 538.045 93.4589 529.886 96.6269Z" fill="#FFB27D"/>
<path d="M565.834 69.0698C565.834 69.0698 568.999 70.9811 571.23 70.7594C573.461 70.5376 574.663 67.8554 574.663 67.8554C571.666 67.5377 568.636 67.9544 565.834 69.0698Z" fill="#FFF2E9"/>
<path d="M529.886 96.6272L519.301 106.976C519.301 106.976 521.716 122.288 537.76 124.262C537.76 124.262 550.908 113.702 543.034 102.741C535.16 91.7802 529.886 96.6272 529.886 96.6272Z" fill="#F99746"/>
<path d="M544.923 173.187C545.043 172.729 545.257 172.302 545.553 171.933C545.848 171.564 546.217 171.261 546.637 171.043C547.998 170.436 549.274 169.111 549.374 169.501C549.464 169.822 549.463 170.161 549.369 170.48C549.276 170.799 549.095 171.086 548.847 171.307C548.166 172.062 546.964 173.372 544.923 173.187Z" fill="#FFB27D"/>
<path d="M557.064 398.041H524.243C524.243 398.041 523.457 393.031 525.172 389.229C526.817 385.586 529.391 383.949 528.774 379.52C530.857 381.668 534.259 384.076 539 383.437C539.586 384.377 542.755 389.43 544.696 390.829C546.837 392.371 556.415 391.822 557.064 398.041Z" fill="#233862"/>
<path d="M42.7207 398.04C42.7207 398.04 42.7207 391.969 43.5804 389.952C44.44 387.935 47.615 379.714 47.615 379.714H60.0197C60.0197 379.714 62.3244 387.211 62.4721 389.661C62.6198 392.111 62.4721 398.04 62.4721 398.04H42.7207Z" fill="#233862"/>
<path d="M121.378 398.04C121.378 398.04 121.378 391.969 120.513 389.952C119.648 387.935 116.483 379.714 116.483 379.714H104.094C104.094 379.714 101.79 387.211 101.647 389.666C101.505 392.122 101.647 398.046 101.647 398.046L121.378 398.04Z" fill="#233862"/>
<path d="M71.7591 57.3327C71.7591 57.3327 71.3214 70.8493 69.5915 76.9053L55.9053 86.4567L107.391 94.1707L95.1127 77.1852C95.1127 77.1852 91.4209 59.0645 93.3512 52.3696C95.2815 45.6747 71.7591 57.3327 71.7591 57.3327Z" fill="#FFB27D"/>
<path d="M71.6855 59.2021C71.6855 59.2021 75.7571 69.0122 83.4256 68.7957C91.0941 68.5793 92.824 59.8991 92.824 59.8991L71.6855 59.2021Z" fill="#ED985F"/>
<path d="M67.1075 51.2549C67.1075 51.2549 64.6287 38.8788 62.8882 35.1301C61.1478 31.3813 59.7238 14.6546 78.874 13.7939C78.874 13.7939 86.2155 14.6546 90.2501 12.21C90.2501 12.21 90.2501 14.6598 89.2428 15.5257C91.4042 15.1453 93.6271 15.3303 95.6961 16.063C97.765 16.7956 99.6098 18.051 101.051 19.7074C106.236 25.4731 97.5969 45.6582 98.0241 50.4154L67.1075 51.2549Z" fill="#2C3A64"/>
<path d="M98.3294 34.0106V47.5219C98.3126 49.7353 97.8385 51.9212 96.937 53.9423C95.4222 57.2925 93.036 60.1737 90.028 62.2845C87.5281 64.0427 84.8436 65.0512 82.5494 65.009C80.5505 64.9667 77.9556 63.9899 75.4399 62.3268C72.0592 60.0775 68.8315 56.5875 67.4602 52.4797V52.4217L67.4075 52.2474C67.001 50.9811 66.7911 49.6598 66.7852 48.3297V34.0106C66.7852 30.6578 69.1216 27.9229 71.9696 27.9229H93.1397C95.9877 27.9229 98.3294 30.6578 98.3294 34.0106Z" fill="#FFB27D"/>
<path d="M66.7597 41.6556C66.7597 41.6556 66.7913 33.0546 73.616 31.7294C80.4406 30.4041 95.6511 35.9216 97.8082 29.6491C99.9653 23.3766 68.3736 23.4874 66.7808 27.4896C65.188 31.4918 66.7597 41.6556 66.7597 41.6556Z" fill="#2C3A64"/>
<path d="M44.3024 187.817C44.3024 187.817 46.4701 254.066 43.2476 291.86C40.0252 329.654 43.2476 382.275 43.2476 382.275C43.2476 382.275 53.6112 387.993 64.8713 382.275C64.8713 382.275 77.1916 309.252 77.1125 291.87C77.0281 273.39 90.5192 190.716 90.5192 190.716L44.3024 187.817Z" fill="#2B478B"/>
<path d="M120.929 382.275C120.929 382.275 110.57 387.999 99.3367 382.275C99.3367 382.275 87.0165 309.258 87.0956 291.876C87.1325 284.062 84.7433 264.8 81.9744 245.164C78.1876 218.299 73.6836 190.727 73.6836 190.727L121.678 187.723C121.678 187.723 117.722 254.082 120.96 291.876C124.199 329.67 120.929 382.275 120.929 382.275Z" fill="#2B478B"/>
<path d="M57.9514 200.97C50.1669 199.914 44.5816 198.858 44.5816 198.858C44.5816 198.858 40.4362 199.217 42.8834 178.746C44.7451 163.155 44.165 149.089 43.7747 134.643C43.7272 133.059 43.7747 131.126 43.8643 129.009C45.0563 130.92 58.3417 152.41 61.9228 168.377C64.5018 179.998 60.5726 193.721 57.9514 200.97Z" fill="#ED7D2B"/>
<path d="M112.628 80.3901V80.4218C106.87 78.9615 101.022 77.8803 95.1232 77.1851C90.3449 83.5211 86.9167 85.0154 82.5445 86.7472C75.5195 85.7704 69.6178 77.0901 69.6178 76.9053C64.5559 77.3598 59.5501 78.3059 54.6711 79.7301C54.2544 79.7776 31.7921 82.7503 0 147.536C0 147.536 1.7088 153.502 10.0471 163.904C15.9804 171.296 25.2734 180.948 39.6874 192.284C40.7602 189.818 41.6298 187.268 42.2875 184.66C42.2875 184.66 33.7224 167.97 28.5749 156.676C26.0698 151.174 24.3557 146.95 24.8514 146.543C25.7797 145.772 36.1485 136.765 43.8012 130.107C43.7379 131.77 43.7221 133.275 43.759 134.6C44.1757 149.072 44.7558 163.138 42.8941 178.714C40.4469 199.185 44.5923 198.826 44.5923 198.826C44.5923 198.826 50.1775 199.919 57.9621 200.938C65.003 201.878 73.8476 202.775 81.9855 202.775C100.65 202.775 121.109 198.81 121.109 198.81C127 198.884 119.458 162.125 118.356 140.012C118.102 134.874 117.865 130.186 117.644 125.904C124.679 132.018 140.259 145.572 141.408 146.527C141.894 146.934 140.19 151.158 137.685 156.66C132.527 167.959 123.972 184.644 123.972 184.644C124.63 187.265 125.501 189.827 126.578 192.305C140.992 180.969 150.285 171.322 156.213 163.925C164.551 153.523 166.265 147.557 166.265 147.557C134.146 82.1589 112.628 80.3901 112.628 80.3901Z" fill="#F99746"/>
<path d="M87.0957 291.86C87.1327 284.046 84.7435 264.784 81.9746 245.148C84.849 233.416 91.8477 222.127 91.8477 222.127C100.734 246.996 87.0957 291.86 87.0957 291.86Z" fill="#233862"/>
<path d="M40.5789 185.505C40.5789 185.505 48.3581 178.298 51.5226 182.337C54.687 186.376 55.2672 192.717 52.82 192.284C50.3728 191.851 45.3308 189.544 44.6135 190.7C43.8962 191.857 40.6632 194.058 39.6875 192.284C38.7118 190.51 40.5789 185.505 40.5789 185.505Z" fill="#FFB27D"/>
<path d="M42.2883 184.686C41.6301 187.292 40.7605 189.84 39.6882 192.304C25.2741 180.968 15.9812 171.322 10.0479 163.925C14.5203 163.592 21.0496 161.992 28.5651 156.691C33.7232 167.99 42.2883 184.686 42.2883 184.686Z" fill="#FFB27D"/>
<path d="M125.66 185.505C125.66 185.505 117.881 178.298 114.711 182.337C111.541 186.376 110.966 192.722 113.393 192.284C115.819 191.846 120.882 189.544 121.604 190.7C122.327 191.857 125.549 194.058 126.53 192.284C127.511 190.51 125.66 185.505 125.66 185.505Z" fill="#FFB27D"/>
<path d="M123.94 184.686C124.612 187.292 125.494 189.84 126.577 192.304C140.986 180.968 150.279 171.322 156.212 163.925C151.74 163.592 145.216 161.992 137.7 156.691C132.516 167.99 123.94 184.686 123.94 184.686Z" fill="#FFB27D"/>
<path d="M90.0227 56.3287V62.3056C87.5228 64.0638 84.8382 65.0722 82.544 65.03C80.5451 64.9878 77.9503 64.011 75.4346 62.3478V56.3287C75.4387 54.7266 76.0763 53.1914 77.2079 52.0585C78.3395 50.9257 79.8731 50.2874 81.4734 50.2832H83.9891C85.5885 50.2888 87.1207 50.9277 88.2512 52.0604C89.3816 53.1931 90.0185 54.7275 90.0227 56.3287Z" fill="#2C3A64"/>
<path d="M141.398 146.56C140.243 145.599 124.552 131.956 117.554 125.868C117.554 125.868 124.542 120.625 128.861 128.27C133.181 135.916 141.398 146.56 141.398 146.56Z" fill="#ED7D2B"/>
<path d="M96.9319 53.9384C94.0786 60.438 87.4385 65.0896 82.5442 65.0262C77.8556 64.9417 69.8442 59.6512 67.4551 52.497V52.4389L67.4023 52.2646C67.4023 52.2646 72.4391 56.5678 75.7723 54.4347H89.7591C89.7591 54.4347 93.3983 56.4991 96.9319 53.9384Z" fill="#2C3A64"/>
<path d="M166.239 147.558C166.239 147.558 164.525 153.524 156.187 163.925C146.535 163.793 166.239 147.558 166.239 147.558Z" fill="#ED7D2B"/>
<path d="M84.2377 55.6015H81.2209C80.53 55.6015 79.6387 54.4663 79.6387 53.7747C80.096 53.4086 80.6418 53.17 81.2209 53.083H84.2377C84.9338 53.083 85.9412 53.6585 86.1047 54.0704C86.1047 54.0704 85.688 55.6015 84.2377 55.6015Z" fill="#FFB27D"/>
</svg>
